<svg width="632" height="450" viewBox="0 0 632 450" fill="none" xmlns="http://www.w3.org/2000/svg">
<g clip-path="url(#clip0)">
<path opacity="0.1" d="M567.367 382.186C562.656 384.613 557.721 386.709 552.858 388.766C534.869 396.35 516.603 404.015 497.284 406.62C460.982 411.481 423.529 398.255 387.869 406.508C357.998 413.398 333.293 434.513 304.11 443.916C290.541 448.287 276.423 450 262.178 450H260.339C258.586 450 256.839 449.934 255.086 449.868C240.643 449.325 226.141 447.223 211.983 444.465C167.279 435.868 121.78 420.11 87.6023 391.1C187.12 372.921 392.116 345.029 567.367 382.186Z" fill="#252223"/>
<path opacity="0.3" d="M602.055 164.658V122.337H576.914V164.658H547.142V99.1918H525.309V50.2572H507.446V0H470.396V50.2572H452.533V99.1918H431.362V40.338H419.453V10.5805H412.176V40.338H369.834V228.141H337.415V208.303H317.567V228.141H285.149V164.658H226.928V122.337H201.788V164.658H200.464V245.996H174V198.384H142.244V245.996H115.78V99.1918H95.2702V50.2572H19.848V99.1918H0V357.752H115.78H200.464H285.149H369.834H431.362H547.142H631.827V164.658H602.055Z" fill="#34CB79"/>
<path opacity="0.4" d="M40.3574 114.401H12.5703V130.272H40.3574V114.401Z" fill="white"/>
<path opacity="0.4" d="M74.7607 130.272H102.548V114.401H74.7607V130.272Z" fill="white"/>
<path opacity="0.4" d="M40.3574 145.481H12.5703V161.352H40.3574V145.481Z" fill="white"/>
<path opacity="0.4" d="M74.7607 161.352H102.548V145.481H74.7607V161.352Z" fill="white"/>
<path opacity="0.4" d="M40.3574 176.561H12.5703V192.432H40.3574V176.561Z" fill="white"/>
<path opacity="0.4" d="M74.7607 192.432H102.548V176.561H74.7607V192.432Z" fill="white"/>
<path opacity="0.4" d="M40.3574 207.641H12.5703V223.512H40.3574V207.641Z" fill="white"/>
<path opacity="0.4" d="M74.7607 223.512H102.548V207.641H74.7607V223.512Z" fill="white"/>
<path opacity="0.4" d="M40.3574 238.722H12.5703V254.592H40.3574V238.722Z" fill="white"/>
<path opacity="0.4" d="M74.7607 254.592H102.548V238.722H74.7607V254.592Z" fill="white"/>
<path opacity="0.4" d="M40.3574 269.802H12.5703V285.672H40.3574V269.802Z" fill="white"/>
<path opacity="0.4" d="M74.7607 285.672H102.548V269.802H74.7607V285.672Z" fill="white"/>
<path opacity="0.4" d="M40.3574 300.882H12.5703V316.752H40.3574V300.882Z" fill="white"/>
<path opacity="0.4" d="M74.7607 316.752H102.548V300.882H74.7607V316.752Z" fill="white"/>
<path opacity="0.4" d="M190.54 261.866H125.704V269.802H190.54V261.866Z" fill="white"/>
<path opacity="0.4" d="M190.54 273.769H125.704V281.705H190.54V273.769Z" fill="white"/>
<path opacity="0.4" d="M190.54 285.672H125.704V293.608H190.54V285.672Z" fill="white"/>
<path opacity="0.4" d="M359.91 265.834H295.073V273.769H359.91V265.834Z" fill="white"/>
<path opacity="0.4" d="M359.91 277.737H295.073V285.672H359.91V277.737Z" fill="white"/>
<path opacity="0.4" d="M359.91 289.64H295.073V297.575H359.91V289.64Z" fill="white"/>
<path opacity="0.4" d="M190.54 297.575H125.704V305.511H190.54V297.575Z" fill="white"/>
<path opacity="0.4" d="M190.54 309.478H125.704V317.414H190.54V309.478Z" fill="white"/>
<path opacity="0.4" d="M190.54 321.381H125.704V329.317H190.54V321.381Z" fill="white"/>
<path opacity="0.4" d="M232.221 179.868H214.358V203.013H232.221V179.868Z" fill="white"/>
<path opacity="0.4" d="M253.392 203.013H271.255V179.868H253.392V203.013Z" fill="white"/>
<path opacity="0.4" d="M232.221 216.899H214.358V240.044H232.221V216.899Z" fill="white"/>
<path opacity="0.4" d="M253.392 240.044H271.255V216.899H253.392V240.044Z" fill="white"/>
<path opacity="0.4" d="M232.221 253.931H214.358V277.076H232.221V253.931Z" fill="white"/>
<path opacity="0.4" d="M253.392 277.076H271.255V253.931H253.392V277.076Z" fill="white"/>
<path opacity="0.4" d="M232.221 290.963H214.358V314.107H232.221V290.963Z" fill="white"/>
<path opacity="0.4" d="M253.392 314.107H271.255V290.962H253.392V314.107Z" fill="white"/>
<path opacity="0.4" d="M393.651 55.5474H369.833V85.9662H393.651V55.5474Z" fill="white"/>
<path opacity="0.4" d="M393.651 99.1918H369.833V129.611H393.651V99.1918Z" fill="white"/>
<path opacity="0.4" d="M393.651 142.836H369.833V173.255H393.651V142.836Z" fill="white"/>
<path opacity="0.4" d="M393.651 186.48H369.833V216.899H393.651V186.48Z" fill="white"/>
<path opacity="0.4" d="M393.651 230.125H369.833V260.544H393.651V230.125Z" fill="white"/>
<path opacity="0.4" d="M393.651 273.769H369.833V304.188H393.651V273.769Z" fill="white"/>
<path opacity="0.4" d="M533.579 117.708H444.925V143.497H533.579V117.708Z" fill="white"/>
<path opacity="0.4" d="M533.91 173.255H445.256V199.045H533.91V173.255Z" fill="white"/>
<path opacity="0.4" d="M534.241 228.802H445.587V254.592H534.241V228.802Z" fill="white"/>
<path opacity="0.4" d="M534.572 284.35H445.917V310.14H534.572V284.35Z" fill="white"/>
<path opacity="0.4" d="M31.7567 64.144H19.8479V89.2726H31.7567V64.144Z" fill="white"/>
<path opacity="0.4" d="M631.827 179.868H602.055V218.222H631.827V179.868Z" fill="white"/>
<path opacity="0.4" d="M631.827 235.415H602.055V273.769H631.827V235.415Z" fill="white"/>
<path opacity="0.4" d="M631.827 290.963H602.055V329.317H631.827V290.963Z" fill="white"/>
<path d="M32.8616 317.116C32.8616 317.116 -19.226 348.527 76.7917 396.886C76.7917 396.886 97.9629 357.633 74.5555 325.627C70.0155 319.386 63.343 315.028 55.8024 313.376C48.2617 311.725 40.377 312.895 33.6423 316.666L32.8616 317.116Z" fill="#34CB79"/>
<path d="M33.4636 316.455C33.4636 316.455 78.0355 350.544 76.7917 396.886" stroke="#535461" stroke-miterlimit="10"/>
<path d="M79.2133 398.672C79.2133 398.672 62.8917 343.283 82.2766 302.515C90.4076 285.408 93.1069 266.198 89.349 247.629C87.5543 238.812 84.952 230.179 81.5753 221.839" stroke="#535461" stroke-width="2" stroke-miterlimit="10"/>
<path d="M93.6162 196.109C93.6162 202.893 81.3237 222.56 81.3237 222.56C81.3237 222.56 69.0245 202.874 69.0245 196.109C68.9865 194.471 69.2765 192.842 69.8773 191.318C70.4781 189.793 71.3778 188.404 72.5233 187.232C73.6688 186.061 75.0372 185.129 76.5479 184.494C78.0586 183.858 79.6812 183.53 81.3204 183.53C82.9595 183.53 84.5821 183.858 86.0928 184.494C87.6036 185.129 88.9719 186.061 90.1174 187.232C91.263 188.404 92.1626 189.793 92.7634 191.318C93.3642 192.842 93.6542 194.471 93.6162 196.109Z" fill="#34CB79"/>
<path d="M113.967 233.709C110.275 239.409 89.2498 249.249 89.2498 249.249C89.2498 249.249 89.6269 226.045 93.3186 220.351C95.1117 217.662 97.8922 215.786 101.058 215.131C104.224 214.475 107.522 215.092 110.236 216.848C112.95 218.604 114.864 221.358 115.562 224.514C116.26 227.669 115.687 230.973 113.967 233.709V233.709Z" fill="#34CB79"/>
<path d="M113.074 297.965C107.013 301.021 83.8906 298.904 83.8906 298.904C83.8906 298.904 95.9383 279.066 102.005 276.011C104.912 274.592 108.262 274.376 111.327 275.408C114.393 276.44 116.929 278.638 118.384 281.526C119.84 284.414 120.099 287.758 119.105 290.835C118.111 293.912 115.944 296.474 113.074 297.965V297.965Z" fill="#34CB79"/>
<path d="M101.45 346.431C95.9913 350.464 72.8486 352.289 72.8486 352.289C72.8486 352.289 81.3634 330.699 86.8282 326.665C89.4545 324.802 92.7069 324.044 95.8867 324.552C99.0665 325.06 101.92 326.794 103.835 329.382C105.749 331.97 106.572 335.206 106.126 338.393C105.68 341.581 104.001 344.467 101.45 346.431V346.431Z" fill="#34CB79"/>
<path d="M63.4274 250.565C68.2967 255.293 90.9962 260.193 90.9962 260.193C90.9962 260.193 85.4388 237.663 80.5628 232.935C79.4047 231.811 78.0362 230.925 76.5357 230.329C75.0351 229.733 73.4318 229.438 71.8173 229.462C70.2028 229.485 68.6087 229.826 67.126 230.465C65.6433 231.104 64.3011 232.029 63.176 233.187C62.0509 234.344 61.1649 235.712 60.5686 237.212C59.9723 238.712 59.6774 240.314 59.7007 241.928C59.7241 243.542 60.0652 245.135 60.7046 246.617C61.3441 248.099 62.2692 249.44 63.4274 250.565V250.565Z" fill="#34CB79"/>
<path d="M50.5526 307.415C56.6128 310.477 79.7357 308.361 79.7357 308.361C79.7357 308.361 67.688 288.522 61.6278 285.467C60.1822 284.702 58.5985 284.233 56.9692 284.087C55.34 283.941 53.698 284.121 52.1394 284.617C50.5807 285.114 49.1368 285.915 47.892 286.976C46.6472 288.037 45.6266 289.335 44.89 290.795C44.1533 292.255 43.7154 293.847 43.6019 295.478C43.4884 297.109 43.7015 298.746 44.2288 300.294C44.7562 301.841 45.587 303.269 46.6729 304.491C47.7587 305.714 49.0777 306.708 50.5526 307.415V307.415Z" fill="#34CB79"/>
<path d="M45.6239 364.391C51.0821 368.425 74.2314 370.25 74.2314 370.25C74.2314 370.25 65.71 348.659 60.2452 344.625C57.6189 342.763 54.3666 342.004 51.1867 342.512C48.0069 343.02 45.1533 344.755 43.2388 347.343C41.3243 349.931 40.5017 353.166 40.9477 356.354C41.3936 359.541 43.0726 362.427 45.6239 364.391V364.391Z" fill="#34CB79"/>
<path opacity="0.25" d="M93.6162 196.109C93.6162 202.893 81.3237 222.56 81.3237 222.56C81.3237 222.56 69.0245 202.874 69.0245 196.109C68.9865 194.471 69.2765 192.842 69.8773 191.318C70.4781 189.793 71.3778 188.404 72.5233 187.232C73.6688 186.061 75.0372 185.129 76.5479 184.494C78.0586 183.858 79.6812 183.53 81.3204 183.53C82.9595 183.53 84.5821 183.858 86.0928 184.494C87.6036 185.129 88.9719 186.061 90.1174 187.232C91.263 188.404 92.1626 189.793 92.7634 191.318C93.3642 192.842 93.6542 194.471 93.6162 196.109Z" fill="black"/>
<path opacity="0.25" d="M113.967 233.709C110.275 239.409 89.2498 249.249 89.2498 249.249C89.2498 249.249 89.6269 226.045 93.3186 220.351C95.1117 217.662 97.8922 215.786 101.058 215.131C104.224 214.475 107.522 215.092 110.236 216.848C112.95 218.604 114.864 221.358 115.562 224.514C116.26 227.669 115.687 230.973 113.967 233.709V233.709Z" fill="black"/>
<path opacity="0.25" d="M113.074 297.965C107.013 301.021 83.8906 298.904 83.8906 298.904C83.8906 298.904 95.9383 279.066 102.005 276.011C104.912 274.592 108.262 274.376 111.327 275.408C114.393 276.44 116.929 278.638 118.384 281.526C119.84 284.414 120.099 287.758 119.105 290.835C118.111 293.912 115.944 296.474 113.074 297.965V297.965Z" fill="black"/>
<path opacity="0.25" d="M101.45 346.431C95.9913 350.464 72.8486 352.289 72.8486 352.289C72.8486 352.289 81.3634 330.699 86.8282 326.665C89.4545 324.802 92.7069 324.044 95.8867 324.552C99.0665 325.06 101.92 326.794 103.835 329.382C105.749 331.97 106.572 335.206 106.126 338.393C105.68 341.581 104.001 344.467 101.45 346.431V346.431Z" fill="black"/>
<path opacity="0.25" d="M63.4274 250.565C68.2967 255.293 90.9962 260.193 90.9962 260.193C90.9962 260.193 85.4388 237.663 80.5628 232.935C79.4047 231.811 78.0362 230.925 76.5357 230.329C75.0351 229.733 73.4318 229.438 71.8173 229.462C70.2028 229.485 68.6087 229.826 67.126 230.465C65.6433 231.104 64.3011 232.029 63.176 233.187C62.0509 234.344 61.1649 235.712 60.5686 237.212C59.9723 238.712 59.6774 240.314 59.7007 241.928C59.7241 243.542 60.0652 245.135 60.7046 246.617C61.3441 248.099 62.2692 249.44 63.4274 250.565V250.565Z" fill="black"/>
<path opacity="0.25" d="M50.5526 307.415C56.6128 310.477 79.7357 308.361 79.7357 308.361C79.7357 308.361 67.688 288.522 61.6278 285.467C60.1822 284.702 58.5985 284.233 56.9692 284.087C55.34 283.941 53.698 284.121 52.1394 284.617C50.5807 285.114 49.1368 285.915 47.892 286.976C46.6472 288.037 45.6266 289.335 44.89 290.795C44.1533 292.255 43.7154 293.847 43.6019 295.478C43.4884 297.109 43.7015 298.746 44.2288 300.294C44.7562 301.841 45.587 303.269 46.6729 304.491C47.7587 305.714 49.0777 306.708 50.5526 307.415V307.415Z" fill="black"/>
<path opacity="0.25" d="M45.6239 364.391C51.0821 368.425 74.2314 370.25 74.2314 370.25C74.2314 370.25 65.71 348.659 60.2452 344.625C57.6189 342.763 54.3666 342.004 51.1867 342.512C48.0069 343.02 45.1533 344.755 43.2388 347.343C41.3243 349.931 40.5017 353.166 40.9477 356.354C41.3936 359.541 43.0726 362.427 45.6239 364.391V364.391Z" fill="black"/>
<path d="M588.677 384.368C588.677 384.368 572.355 328.979 591.74 288.212C599.871 271.104 602.577 251.894 598.819 233.325C597.018 224.51 594.416 215.878 591.045 207.536" stroke="#535461" stroke-width="2" stroke-miterlimit="10"/>
<path d="M603.107 181.805C603.107 188.59 590.807 208.256 590.807 208.256C590.807 208.256 578.508 188.57 578.508 181.805C578.508 178.545 579.804 175.418 582.111 173.113C584.417 170.807 587.546 169.512 590.807 169.512C594.069 169.512 597.198 170.807 599.504 173.113C601.811 175.418 603.107 178.545 603.107 181.805V181.805Z" fill="#34CB79"/>
<path d="M623.431 219.406C619.739 225.106 598.713 234.946 598.713 234.946C598.713 234.946 599.097 211.741 602.789 206.048C604.561 203.312 607.348 201.392 610.537 200.71C613.726 200.027 617.055 200.639 619.792 202.411C622.529 204.182 624.45 206.968 625.133 210.155C625.815 213.342 625.203 216.67 623.431 219.406V219.406Z" fill="#34CB79"/>
<path d="M622.544 283.662C616.477 286.717 593.354 284.601 593.354 284.601C593.354 284.601 605.409 264.763 611.469 261.708C614.382 260.24 617.759 259.988 620.857 261.009C623.955 262.03 626.52 264.239 627.989 267.15C629.458 270.061 629.709 273.436 628.688 276.533C627.667 279.63 625.457 282.194 622.544 283.662V283.662Z" fill="#34CB79"/>
<path d="M610.92 332.127C605.455 336.161 582.312 337.986 582.312 337.986C582.312 337.986 590.834 316.395 596.292 312.362C598.916 310.454 602.188 309.66 605.396 310.152C608.603 310.645 611.485 312.385 613.415 314.992C615.345 317.6 616.165 320.864 615.698 324.073C615.231 327.283 613.513 330.178 610.92 332.127V332.127Z" fill="#34CB79"/>
<path d="M572.892 236.242C577.768 240.97 600.46 245.87 600.46 245.87C600.46 245.87 594.903 223.34 590.034 218.612C588.881 217.461 587.511 216.55 586.003 215.932C584.495 215.315 582.879 215.003 581.25 215.015C579.62 215.027 578.009 215.362 576.511 216.001C575.012 216.641 573.655 217.572 572.52 218.74C571.384 219.908 570.492 221.29 569.895 222.805C569.298 224.321 569.009 225.94 569.043 227.569C569.078 229.197 569.436 230.802 570.097 232.291C570.757 233.78 571.707 235.123 572.892 236.242V236.242Z" fill="#34CB79"/>
<path d="M560.043 293.112C566.11 296.173 589.233 294.057 589.233 294.057C589.233 294.057 577.185 274.219 571.118 271.164C569.673 270.399 568.089 269.929 566.46 269.783C564.831 269.637 563.189 269.818 561.63 270.314C560.071 270.81 558.627 271.612 557.383 272.673C556.138 273.733 555.117 275.032 554.381 276.491C553.644 277.951 553.206 279.543 553.093 281.174C552.979 282.805 553.192 284.443 553.72 285.99C554.247 287.538 555.078 288.965 556.164 290.188C557.249 291.411 558.568 292.405 560.043 293.112V293.112Z" fill="#34CB79"/>
<path d="M555.088 350.087C560.553 354.121 583.695 355.946 583.695 355.946C583.695 355.946 575.174 334.362 569.716 330.322C567.092 328.414 563.82 327.62 560.612 328.113C557.405 328.605 554.523 330.345 552.593 332.952C550.663 335.56 549.843 338.824 550.31 342.033C550.777 345.243 552.495 348.138 555.088 350.087V350.087Z" fill="#34CB79"/>
<path d="M515.054 378.979C515.054 378.979 506.282 349.221 516.702 327.306C521.125 318.145 522.46 307.797 520.506 297.813C519.538 293.08 518.138 288.445 516.324 283.966" stroke="#535461" stroke-width="2" stroke-miterlimit="10"/>
<path d="M522.808 270.119C522.808 273.769 516.192 284.35 516.192 284.35C516.192 284.35 509.576 273.769 509.576 270.119C509.576 268.365 510.273 266.683 511.514 265.443C512.755 264.203 514.438 263.506 516.192 263.506C517.947 263.506 519.63 264.203 520.871 265.443C522.111 266.683 522.808 268.365 522.808 270.119Z" fill="#34CB79"/>
<path d="M533.731 290.328C531.747 293.389 520.447 298.68 520.447 298.68C520.447 298.68 520.652 286.208 522.636 283.146C523.626 281.761 525.111 280.811 526.784 280.493C528.457 280.175 530.187 280.514 531.617 281.439C533.046 282.364 534.063 283.804 534.457 285.46C534.851 287.115 534.591 288.859 533.731 290.328V290.328Z" fill="#34CB79"/>
<path d="M533.255 324.853C529.993 326.493 517.568 325.356 517.568 325.356C517.568 325.356 524.045 314.696 527.3 313.056C528.855 312.354 530.62 312.279 532.228 312.847C533.837 313.415 535.163 314.582 535.931 316.104C536.7 317.626 536.85 319.385 536.351 321.016C535.853 322.646 534.743 324.021 533.255 324.853V324.853Z" fill="#34CB79"/>
<path d="M527.003 350.901C524.072 353.07 511.634 354.048 511.634 354.048C511.634 354.048 516.212 342.45 519.15 340.281C519.843 339.708 520.645 339.283 521.508 339.03C522.371 338.778 523.276 338.704 524.169 338.813C525.061 338.923 525.922 339.212 526.698 339.665C527.475 340.118 528.151 340.724 528.686 341.447C529.22 342.169 529.601 342.993 529.807 343.868C530.012 344.743 530.036 345.651 529.879 346.536C529.721 347.42 529.385 348.264 528.891 349.014C528.396 349.765 527.754 350.407 527.003 350.901V350.901Z" fill="#34CB79"/>
<path d="M506.573 299.387C509.219 301.927 521.386 304.558 521.386 304.558C521.386 304.558 518.402 292.45 515.782 289.911C515.17 289.258 514.432 288.736 513.612 288.377C512.793 288.018 511.909 287.828 511.014 287.82C510.119 287.812 509.231 287.985 508.406 288.33C507.58 288.675 506.832 289.183 506.209 289.825C505.585 290.467 505.098 291.228 504.777 292.063C504.457 292.898 504.309 293.79 504.343 294.684C504.377 295.578 504.592 296.456 504.975 297.264C505.359 298.072 505.902 298.795 506.573 299.387V299.387Z" fill="#34CB79"/>
<path d="M499.653 329.938C502.914 331.578 515.339 330.447 515.339 330.447C515.339 330.447 508.862 319.788 505.6 318.141C504.046 317.439 502.281 317.364 500.672 317.932C499.064 318.5 497.738 319.667 496.969 321.189C496.201 322.711 496.051 324.471 496.549 326.101C497.048 327.731 498.157 329.106 499.646 329.938H499.653Z" fill="#34CB79"/>
<path d="M497.006 360.562C499.937 362.731 512.375 363.71 512.375 363.71C512.375 363.71 507.777 352.104 504.866 349.935C503.452 348.974 501.721 348.598 500.036 348.884C498.35 349.171 496.841 350.099 495.825 351.473C494.809 352.847 494.364 354.56 494.584 356.255C494.804 357.949 495.672 359.493 497.006 360.562V360.562Z" fill="#34CB79"/>
<path opacity="0.1" d="M175.112 31.5297H170.56C170.991 31.5494 171.421 31.4815 171.824 31.3304C172.228 31.1792 172.597 30.9478 172.908 30.6502C173.22 30.3526 173.468 29.995 173.637 29.5989C173.807 29.2028 173.894 28.7765 173.894 28.3457C173.894 27.9149 173.807 27.4886 173.637 27.0925C173.468 26.6964 173.22 26.3387 172.908 26.0411C172.597 25.7435 172.228 25.5122 171.824 25.361C171.421 25.2098 170.991 25.142 170.56 25.1616H133.689C133.259 25.142 132.829 25.2098 132.425 25.361C132.021 25.5122 131.653 25.7435 131.341 26.0411C131.029 26.3387 130.781 26.6964 130.612 27.0925C130.442 27.4886 130.355 27.9149 130.355 28.3457C130.355 28.7765 130.442 29.2028 130.612 29.5989C130.781 29.995 131.029 30.3526 131.341 30.6502C131.653 30.9478 132.021 31.1792 132.425 31.3304C132.829 31.4815 133.259 31.5494 133.689 31.5297H138.241C137.395 31.5297 136.584 31.8656 135.986 32.4633C135.388 33.061 135.052 33.8718 135.052 34.7171C135.052 35.5624 135.388 36.3732 135.986 36.9709C136.584 37.5687 137.395 37.9045 138.241 37.9045H131.87C131.439 37.8849 131.009 37.9527 130.606 38.1038C130.202 38.255 129.833 38.4864 129.522 38.784C129.21 39.0816 128.962 39.4392 128.792 39.8353C128.623 40.2314 128.536 40.6577 128.536 41.0885C128.536 41.5193 128.623 41.9456 128.792 42.3417C128.962 42.7378 129.21 43.0955 129.522 43.3931C129.833 43.6907 130.202 43.922 130.606 44.0732C131.009 44.2244 131.439 44.2922 131.87 44.2726H168.741C169.171 44.2922 169.601 44.2244 170.005 44.0732C170.408 43.922 170.777 43.6907 171.089 43.3931C171.4 43.0955 171.648 42.7378 171.818 42.3417C171.987 41.9456 172.075 41.5193 172.075 41.0885C172.075 40.6577 171.987 40.2314 171.818 39.8353C171.648 39.4392 171.4 39.0816 171.089 38.784C170.777 38.4864 170.408 38.255 170.005 38.1038C169.601 37.9527 169.171 37.8849 168.741 37.9045H175.112C175.958 37.9045 176.769 37.5687 177.367 36.9709C177.965 36.3732 178.301 35.5624 178.301 34.7171C178.301 33.8718 177.965 33.061 177.367 32.4633C176.769 31.8656 175.958 31.5297 175.112 31.5297V31.5297Z" fill="#252223"/>
<path opacity="0.1" d="M337.865 111.544H333.313C333.744 111.564 334.174 111.496 334.577 111.345C334.981 111.194 335.35 110.963 335.661 110.665C335.973 110.367 336.221 110.01 336.391 109.614C336.56 109.218 336.647 108.791 336.647 108.36C336.647 107.93 336.56 107.503 336.391 107.107C336.221 106.711 335.973 106.353 335.661 106.056C335.35 105.758 334.981 105.527 334.577 105.376C334.174 105.225 333.744 105.157 333.313 105.176H296.442C296.012 105.157 295.582 105.225 295.178 105.376C294.775 105.527 294.406 105.758 294.094 106.056C293.783 106.353 293.534 106.711 293.365 107.107C293.196 107.503 293.108 107.93 293.108 108.36C293.108 108.791 293.196 109.218 293.365 109.614C293.534 110.01 293.783 110.367 294.094 110.665C294.406 110.963 294.775 111.194 295.178 111.345C295.582 111.496 296.012 111.564 296.442 111.544H300.994C300.148 111.544 299.337 111.88 298.739 112.478C298.141 113.076 297.805 113.886 297.805 114.732C297.805 115.577 298.141 116.388 298.739 116.986C299.337 117.583 300.148 117.919 300.994 117.919H294.623C294.192 117.9 293.762 117.967 293.359 118.119C292.955 118.27 292.586 118.501 292.275 118.799C291.963 119.096 291.715 119.454 291.546 119.85C291.376 120.246 291.289 120.672 291.289 121.103C291.289 121.534 291.376 121.96 291.546 122.356C291.715 122.753 291.963 123.11 292.275 123.408C292.586 123.705 292.955 123.937 293.359 124.088C293.762 124.239 294.192 124.307 294.623 124.287H331.494C331.924 124.307 332.354 124.239 332.758 124.088C333.162 123.937 333.53 123.705 333.842 123.408C334.154 123.11 334.402 122.753 334.571 122.356C334.741 121.96 334.828 121.534 334.828 121.103C334.828 120.672 334.741 120.246 334.571 119.85C334.402 119.454 334.154 119.096 333.842 118.799C333.53 118.501 333.162 118.27 332.758 118.119C332.354 117.967 331.924 117.9 331.494 117.919H337.865C338.284 117.919 338.698 117.837 339.085 117.677C339.472 117.516 339.824 117.282 340.12 116.986C340.416 116.69 340.651 116.338 340.811 115.952C340.971 115.565 341.054 115.15 341.054 114.732C341.054 114.313 340.971 113.899 340.811 113.512C340.651 113.125 340.416 112.774 340.12 112.478C339.824 112.182 339.472 111.947 339.085 111.787C338.698 111.627 338.284 111.544 337.865 111.544V111.544Z" fill="#252223"/>
<path opacity="0.1" d="M615.075 7.06246H610.523C610.953 7.08207 611.384 7.01425 611.787 6.86309C612.191 6.71192 612.559 6.48055 612.871 6.18295C613.183 5.88535 613.431 5.5277 613.6 5.13161C613.77 4.73551 613.857 4.30919 613.857 3.8784C613.857 3.44761 613.77 3.02129 613.6 2.62519C613.431 2.2291 613.183 1.87145 612.871 1.57385C612.559 1.27625 612.191 1.04488 611.787 0.893716C611.384 0.742551 610.953 0.67473 610.523 0.694347H573.652C573.221 0.67473 572.791 0.742551 572.388 0.893716C571.984 1.04488 571.615 1.27625 571.304 1.57385C570.992 1.87145 570.744 2.2291 570.575 2.62519C570.405 3.02129 570.318 3.44761 570.318 3.8784C570.318 4.30919 570.405 4.73551 570.575 5.13161C570.744 5.5277 570.992 5.88535 571.304 6.18295C571.615 6.48055 571.984 6.71192 572.388 6.86309C572.791 7.01425 573.221 7.08207 573.652 7.06246H578.204C577.358 7.06246 576.547 7.39826 575.949 7.99601C575.351 8.59376 575.015 9.40448 575.015 10.2498C575.015 11.0952 575.351 11.9059 575.949 12.5036C576.547 13.1014 577.358 13.4372 578.204 13.4372H571.833C571.402 13.4176 570.972 13.4854 570.568 13.6365C570.165 13.7877 569.796 14.0191 569.484 14.3167C569.173 14.6143 568.925 14.9719 568.755 15.368C568.586 15.7641 568.499 16.1904 568.499 16.6212C568.499 17.052 568.586 17.4783 568.755 17.8744C568.925 18.2705 569.173 18.6282 569.484 18.9258C569.796 19.2234 570.165 19.4547 570.568 19.6059C570.972 19.7571 571.402 19.8249 571.833 19.8053H608.704C609.134 19.8249 609.564 19.7571 609.968 19.6059C610.371 19.4547 610.74 19.2234 611.052 18.9258C611.363 18.6282 611.611 18.2705 611.781 17.8744C611.95 17.4783 612.038 17.052 612.038 16.6212C612.038 16.1904 611.95 15.7641 611.781 15.368C611.611 14.9719 611.363 14.6143 611.052 14.3167C610.74 14.0191 610.371 13.7877 609.968 13.6365C609.564 13.4854 609.134 13.4176 608.704 13.4372H615.075C615.92 13.4372 616.732 13.1014 617.33 12.5036C617.928 11.9059 618.264 11.0952 618.264 10.2498C618.264 9.40448 617.928 8.59376 617.33 7.99601C616.732 7.39826 615.92 7.06246 615.075 7.06246V7.06246Z" fill="#252223"/>
<path d="M466.758 349.711C467.021 349.711 467.273 349.606 467.46 349.42C467.646 349.234 467.75 348.982 467.75 348.719C467.75 348.455 467.646 348.203 467.46 348.017C467.273 347.831 467.021 347.727 466.758 347.727C466.495 347.727 466.242 347.831 466.056 348.017C465.87 348.203 465.765 348.455 465.765 348.719C465.765 348.982 465.87 349.234 466.056 349.42C466.242 349.606 466.495 349.711 466.758 349.711Z" fill="#535461"/>
<g opacity="0.5">
<path opacity="0.5" d="M345.374 292.953L335.761 247.722H336.747L336.595 246.954H336.873L331.897 222.487C331.897 222.487 332.149 196.929 333.36 187.043C334.246 179.828 335.649 170.636 334.623 162.899C334.765 162.686 334.895 162.465 335.014 162.238C335.438 161.415 335.695 160.516 335.768 159.593C336.139 157.43 335.848 155.206 334.934 153.212L344.931 146.969C345.156 146.969 345.387 147.015 345.593 147.029C345.593 146.936 345.5 146.791 345.427 146.599C350.156 146.847 354.842 145.58 358.8 142.981C362.758 140.382 365.782 136.587 367.432 132.15C368.312 133.471 369.4 134.641 370.654 135.615C373.347 137.632 377.587 138.082 379.83 135.575C380.647 134.575 381.2 133.386 381.438 132.117C381.57 131.548 381.663 130.966 381.742 130.391C383.013 123.633 380.227 116.663 376.635 110.738C372.143 103.338 366.182 96.6392 358.606 92.4335C351.031 88.2278 341.735 86.7201 333.538 89.5239C325.341 92.3277 317.084 99.939 316.337 108.569C315.966 112.979 316.495 115.023 315.582 119.354C315.126 121.51 316.112 125.709 316.099 128.09C316.018 128.527 315.965 128.968 315.94 129.412C315.807 132.057 316.859 134.557 317.627 137.096C306.816 137.639 278.387 139.827 270.177 148.173C259.962 158.548 234.914 162.258 234.914 162.258L193.2 170.65L178.645 176.826L178.81 177.487L178.519 177.613C178.519 177.613 179.035 179.537 179.776 182.076C176.529 185.014 174.403 188.988 173.762 193.318C172.955 197.808 173.385 203.588 176.23 210.961C176.23 210.961 190.593 237.326 191.586 247.96L209.714 284.125C208.159 287.226 192.624 318.571 189.952 336.115C189.74 337.378 189.597 338.652 189.522 339.93C189.522 339.93 189.422 340.856 189.178 342.397C188.112 348.897 184.745 364.88 176.521 372.353L176.627 372.445L176.389 372.677L176.574 372.835C174.106 377.55 177.672 383.938 177.672 383.938L181.728 402.044L186.266 402.778L191.043 400.834L193.69 405.919C193.69 405.919 214.298 409.226 220.154 409.034C226.009 408.842 215.192 398.923 211.401 395.98C209.297 394.353 207.649 387.668 206.604 382.04C207.156 381.593 207.651 381.08 208.079 380.513C208.079 380.513 205.559 367.287 213.147 349.142C216.382 341.418 219.862 332.537 222.807 324.886C224.388 335.162 226.048 345.749 227.272 352.977C229.052 363.445 228.82 369.833 228.271 373.437C228.17 374.694 227.873 375.928 227.391 377.094C227.416 377.128 227.438 377.163 227.458 377.2C227.423 377.293 227.381 377.384 227.332 377.471C227.372 377.537 227.411 377.597 227.444 377.663C223.303 382.397 227.616 390.121 227.616 390.121L231.672 408.174L236.211 408.908L240.987 406.964L243.634 412.049C243.634 412.049 264.242 415.356 270.098 415.164C275.953 414.972 265.136 405.053 261.338 402.11C258.381 399.816 256.33 387.496 255.569 382.212C256.118 382.159 256.422 382.12 256.422 382.12L256.363 381.756H256.488L253.895 366.6C249.462 362.784 250.078 308.579 250.078 308.579C250.078 308.579 247.769 314.246 247.696 313.79C247.921 312.877 248.754 310.298 250.686 304.803C251.821 301.652 252.661 298.402 253.194 295.096C255.291 282.194 251.381 274.305 251.381 274.305C251.639 271.713 248.907 261.641 245.678 250.915L255.82 231.156C257.231 231.687 258.761 231.813 260.24 231.52L267.921 217.633C267.921 217.633 283.799 208.177 288.344 208.911C292.572 209.572 305.817 206.676 310.938 201.161C311.306 200.758 311.643 200.327 311.944 199.871C316.065 193.556 314.372 232.843 314.372 232.843L312.169 246.452L312.049 247.206L318.619 247.338L334.101 300.412C334.101 300.412 335.073 318.412 352.665 322.413C370.257 326.414 345.374 292.953 345.374 292.953ZM239.631 231.613C238.678 228.677 237.845 226.144 237.216 224.246L240.491 221.694C240.491 221.694 240.901 222.037 241.596 222.586L239.631 231.613Z" fill="url(#paint0_linear)"/>
</g>
<path d="M255.595 376.472C255.595 376.472 257.838 395.359 261.55 398.228C265.261 401.098 275.794 410.733 270.084 410.945C264.375 411.156 244.282 407.916 244.282 407.916L241.682 402.957L237.051 404.848L232.625 404.134L228.655 386.484C228.655 386.484 223.084 376.512 230.924 372.485C238.764 368.458 255.595 376.472 255.595 376.472Z" fill="#3A384D"/>
<path opacity="0.1" d="M236.746 221.634C236.746 221.634 252.327 267.983 251.738 273.935C251.738 273.935 257.448 285.441 251.149 303.328C244.851 321.216 250.488 307.382 250.488 307.382C250.488 307.382 249.892 360.212 254.206 363.935L256.733 378.708C256.733 378.708 232.439 381.591 228.351 374.125C228.351 374.125 231.513 368.59 228.417 350.319C225.321 332.048 219.353 291.789 219.353 291.789L203.184 199.957L236.746 221.634Z" fill="black"/>
<path d="M236.806 221.264C236.806 221.264 252.387 267.639 251.798 273.591C251.798 273.591 257.508 285.097 251.209 302.985C244.911 320.872 250.547 307.038 250.547 307.038C250.547 307.038 249.952 359.874 254.266 363.591L256.793 378.37C256.793 378.37 232.499 381.247 228.41 373.781C228.41 373.781 231.573 368.246 228.477 349.975C225.38 331.704 219.406 291.425 219.406 291.425L203.243 199.587L236.806 221.264Z" fill="#BEC7DE"/>
<path opacity="0.1" d="M207.252 201.994L223.098 292.021C223.098 292.021 229.052 332.299 232.168 350.57C235.284 368.841 232.102 374.376 232.102 374.376C233.293 376.552 236.184 377.841 239.69 378.589C234.768 378.013 230.329 376.671 228.781 373.841C228.781 373.841 231.95 368.306 228.854 350.035C225.757 331.763 219.783 291.485 219.783 291.485L203.614 199.647L207.252 201.994Z" fill="black"/>
<path d="M207.007 370.514C207.007 370.514 209.244 389.4 212.962 392.27C216.68 395.14 227.206 404.775 221.496 404.987C215.787 405.198 195.694 401.958 195.694 401.958L193.094 396.999L188.463 398.896L184.037 398.176L180.067 380.526C180.067 380.526 174.496 370.554 182.33 366.527C190.163 362.5 207.007 370.514 207.007 370.514Z" fill="#3A384D"/>
<path opacity="0.1" d="M236.746 221.634C236.746 221.634 252.327 267.983 251.738 273.935C251.738 273.935 257.448 285.441 251.149 303.328C244.851 321.216 250.488 307.382 250.488 307.382C250.488 307.382 249.892 360.212 254.206 363.935L256.733 378.708C256.733 378.708 232.439 381.591 228.351 374.125C228.351 374.125 231.513 368.59 228.417 350.319C225.321 332.048 219.353 291.789 219.353 291.789L203.184 199.957L236.746 221.634Z" fill="black"/>
<path opacity="0.1" d="M187.371 180.767C187.371 180.767 170.031 187.42 179.359 211.609C179.359 211.609 193.365 237.306 194.338 247.675L212.069 283.054C212.069 283.054 193.16 320.456 192.32 337.331C192.32 337.331 189.793 359.987 179.591 369.298C179.591 369.298 201.536 387.966 209.707 377.187C209.707 377.187 207.252 364.318 214.656 346.609C222.059 328.9 230.838 305.015 230.838 305.015C230.838 305.015 252.069 290.672 237.924 261.165L222.046 195.467L221.788 180.681L209.608 176.449L187.371 180.767Z" fill="black"/>
<path opacity="0.1" d="M186.577 181.012C186.577 181.012 169.237 187.664 178.565 211.854C178.565 211.854 192.565 237.558 193.537 247.927L211.268 283.305C211.268 283.305 192.36 320.7 191.533 337.583C191.533 337.583 189.005 360.231 178.797 369.549C178.797 369.549 200.742 388.217 208.919 377.438C208.919 377.438 206.458 364.563 213.862 346.86C221.265 329.158 230.044 305.24 230.044 305.24C230.044 305.24 251.282 290.896 237.137 261.39L221.258 195.692L221 180.906L208.827 176.674L186.577 181.012Z" fill="black"/>
<path d="M186.637 180.648C186.637 180.648 169.296 187.307 178.625 211.49C178.625 211.49 188.913 230.37 192.459 242.292C194.007 247.414 195.999 252.39 198.413 257.165L211.328 282.954C211.328 282.954 192.419 320.356 191.586 337.232C191.586 337.232 189.058 359.888 178.85 369.198C178.85 369.198 200.795 387.866 208.972 377.087C208.972 377.087 206.511 364.219 213.915 346.51C221.318 328.801 230.097 304.889 230.097 304.889C230.097 304.889 251.335 290.546 237.19 261.04L221.311 195.342L221.053 180.555L208.88 176.323L186.637 180.648Z" fill="#BEC7DE"/>
<path opacity="0.1" d="M186.637 180.648L208.9 176.303L211.804 177.315L191.063 181.356C191.063 181.356 173.722 188.008 183.051 212.198C183.051 212.198 193.332 231.077 196.885 243C198.433 248.121 200.425 253.097 202.839 257.872L215.76 283.662C215.76 283.662 196.825 321.051 196.012 337.927C196.012 337.927 193.478 360.582 183.276 369.893C183.276 369.893 192.73 377.934 201.536 380.414C191.824 380.215 178.85 369.172 178.85 369.172C189.058 359.861 191.586 337.206 191.586 337.206C192.419 320.33 211.328 282.928 211.328 282.928L198.413 257.138C195.999 252.363 194.007 247.387 192.459 242.266C188.913 230.363 178.625 211.464 178.625 211.464C169.296 187.307 186.637 180.648 186.637 180.648Z" fill="black"/>
<path d="M258.083 227.724L244.276 254.605C244.276 254.605 248.325 290.42 240.59 291.439C232.856 292.457 235.959 252.132 235.959 252.132L243.402 217.792L258.083 227.724Z" fill="#BE7C5E"/>
<path d="M333.552 245.209L343.423 291.789C343.423 291.789 367.65 324.436 350.502 320.535C333.353 316.633 332.407 299.063 332.407 299.063L315.867 242.326L333.552 245.209Z" fill="#BE7C5E"/>
<path d="M343.389 149.251L318.976 164.592L310.263 141.256C310.263 141.256 330.468 142.631 332.824 135.073C335.179 127.514 343.389 149.251 343.389 149.251Z" fill="#BE7C5E"/>
<path d="M330.852 158.952L329.291 152.266L305.229 153.675L295.536 192.564L313.591 193.212L323.7 177.454L329.211 162.086L330.852 158.952Z" fill="#BE7C5E"/>
<path opacity="0.1" d="M322.529 151.935L324.514 140.727C324.514 140.727 279.982 141.282 270.025 151.393C260.068 161.504 235.655 165.128 235.655 165.128L194.993 173.301L180.775 179.325C180.775 179.325 184.784 194.337 186.505 195.375C188.225 196.413 207.424 180.602 207.424 180.602L214.702 182.533L191.003 207.436L234.742 250.42L235.549 226.733L241.153 222.355C241.153 222.355 254.471 233.597 260.412 231.891L267.901 218.354C267.901 218.354 283.382 209.136 287.809 209.85C291.93 210.511 304.845 207.675 309.833 202.298C310.183 201.922 310.502 201.517 310.786 201.088C314.808 194.932 313.154 233.226 313.154 233.226L310.892 247.226L335.02 247.722L330.177 223.876C330.177 223.876 330.422 198.965 331.6 189.324C332.777 179.683 334.908 166.424 330.588 158.158L322.093 166.239L307.313 189.952L312.923 169.307L322.529 151.935Z" fill="black"/>
<path d="M322.655 151.195L320.545 139.695C320.545 139.695 280.127 140.542 270.17 150.652C260.213 160.763 235.767 164.381 235.767 164.381L195.105 172.561L180.947 178.591C180.947 178.591 184.957 193.603 186.677 194.634C188.397 195.666 207.603 179.868 207.603 179.868L214.881 181.799L191.182 206.702L234.92 249.686L235.728 225.992L241.351 221.608C241.351 221.608 254.669 232.849 260.61 231.15L268.1 217.614C268.1 217.614 283.495 208.395 287.948 209.129C292.069 209.791 304.984 206.947 309.972 201.571C310.322 201.194 310.641 200.789 310.925 200.361C314.947 194.204 313.293 232.506 313.293 232.506L311.031 246.505L335.159 247.001L330.316 223.155C330.316 223.155 330.561 198.238 331.739 188.603C332.916 178.968 335.047 165.697 330.727 157.437L322.232 165.485L307.432 189.179L313.042 168.533L322.655 151.195Z" fill="#7FAFF2"/>
<path opacity="0.1" d="M271.679 165.835C271.679 165.835 247.59 186.143 245.069 197.081Z" fill="black"/>
<path opacity="0.1" d="M297.977 183.339C297.977 183.339 279.453 197.359 276.145 206.273Z" fill="black"/>
<path opacity="0.1" d="M243.878 204.447C243.878 204.447 242.138 212.859 241.794 217.342Z" fill="black"/>
<path opacity="0.1" d="M235.073 223.816C235.073 223.816 207.325 198.919 203.442 199.428Z" fill="black"/>
<path opacity="0.1" d="M333.115 135.496C335.371 128.262 342.993 147.875 343.634 149.561C342.909 149.521 342.187 149.441 341.471 149.323C338.577 148.861 335.808 147.813 333.333 146.245C330.858 144.678 328.728 142.622 327.074 140.204C330.045 139.272 332.414 137.797 333.115 135.496Z" fill="black"/>
<path d="M344.633 149.178C356.596 149.178 366.294 139.485 366.294 127.528C366.294 115.57 356.596 105.877 344.633 105.877C332.67 105.877 322.973 115.57 322.973 127.528C322.973 139.485 332.67 149.178 344.633 149.178Z" fill="#BE7C5E"/>
<path opacity="0.1" d="M362.225 130.649C363.925 133.446 365.474 136.481 368.1 138.439C370.727 140.396 374.862 140.839 377.045 138.399C377.839 137.423 378.376 136.263 378.606 135.026C380.207 128.209 377.409 121.14 373.777 115.129C369.397 107.914 363.581 101.387 356.205 97.2741C348.828 93.1609 339.757 91.6995 331.765 94.4372C323.773 97.1749 317.21 104.489 316.548 112.9C316.185 117.198 317.27 121.583 316.376 125.808C315.913 128.01 314.914 130.107 314.802 132.355C314.59 136.528 317.448 140.409 317.19 144.582C317.031 147.154 315.715 149.489 314.908 151.942C312.923 157.854 313.995 164.288 313.584 170.504C313.174 176.72 310.455 183.69 304.501 185.528C311.084 188.835 320.161 185.356 322.84 178.492C323.654 176.396 323.952 174.068 325.189 172.19C327.28 169.016 331.626 167.76 333.38 164.387C335.133 161.015 333.611 156.908 331.692 153.635C329.774 150.361 327.379 147.068 327.339 143.279C327.353 141.429 327.93 139.627 328.994 138.113C330.058 136.598 331.557 135.443 333.294 134.802C335.1 134.173 337.051 134.14 338.95 133.929C343.661 133.324 348.16 131.608 352.076 128.923C357.164 125.597 358.527 124.565 362.225 130.649Z" fill="black"/>
<path d="M362.364 129.703C364.064 132.507 365.613 135.536 368.239 137.5C370.866 139.464 375.001 139.9 377.184 137.46C377.977 136.483 378.513 135.324 378.745 134.087C380.346 127.27 377.548 120.201 373.916 114.19C369.536 106.968 363.72 100.448 356.344 96.335C348.967 92.2219 339.896 90.7671 331.904 93.4981C323.912 96.2292 315.867 103.655 315.159 112.067C314.795 116.365 315.318 118.356 314.425 122.575C313.962 124.777 315.04 129.187 314.928 131.422C314.716 135.595 317.574 139.477 317.316 143.65C317.157 146.222 315.841 148.556 315.033 151.003C313.049 156.921 314.12 163.356 313.71 169.572C313.3 175.788 310.581 182.751 304.626 184.589C311.209 187.896 320.286 184.417 322.966 177.553C323.78 175.464 324.077 173.136 325.315 171.258C327.405 168.084 331.752 166.827 333.505 163.455C335.258 160.082 333.737 155.969 331.825 152.696C329.913 149.422 327.505 146.136 327.465 142.34C327.48 140.491 328.058 138.69 329.122 137.177C330.185 135.664 331.684 134.511 333.419 133.869C335.225 133.241 337.177 133.208 339.076 132.996C343.786 132.389 348.284 130.673 352.202 127.99C357.316 124.651 358.679 123.626 362.364 129.703Z" fill="#723647"/>
<path d="M317.412 142.236L326.602 143.72C327.316 143.836 327.988 143.352 328.103 142.64C328.218 141.928 327.733 141.257 327.019 141.142L317.829 139.657C317.115 139.542 316.443 140.026 316.327 140.738C316.212 141.45 316.698 142.121 317.412 142.236Z" fill="#252A62"/>
<path d="M298.473 324.985C298.626 335.341 307.365 343.501 317.726 343.501H319.168C320.442 343.497 321.667 343.991 322.582 344.877C323.276 345.526 323.758 346.369 323.965 347.297C324.063 347.67 324.112 348.055 324.11 348.441V366.725C324.104 370.241 325.11 373.685 327.008 376.644C329.771 380.837 331.268 385.736 331.322 390.756C331.322 391.928 331.555 393.088 332.008 394.169C332.462 395.25 333.126 396.229 333.963 397.051C334.799 397.872 335.791 398.518 336.88 398.952C337.969 399.386 339.134 399.599 340.306 399.578C345.149 399.492 348.947 395.326 348.947 390.478V385.909L351.355 386.187V390.769C351.356 391.94 351.59 393.098 352.043 394.178C352.497 395.257 353.161 396.235 353.996 397.055C354.832 397.875 355.823 398.52 356.911 398.953C357.999 399.386 359.162 399.599 360.333 399.578C365.182 399.492 368.98 395.326 368.98 390.478V388.164C371.382 389.169 385.004 389.169 388.782 388.164L389.807 388.085V390.73C389.803 391.904 390.034 393.067 390.486 394.151C390.938 395.235 391.602 396.217 392.439 397.041C393.275 397.865 394.268 398.514 395.359 398.95C396.45 399.385 397.617 399.599 398.792 399.578C403.635 399.492 407.432 395.326 407.432 390.478V386.683L408.233 386.61V390.776C408.235 391.946 408.47 393.104 408.925 394.183C409.38 395.261 410.044 396.238 410.881 397.058C411.717 397.877 412.708 398.521 413.796 398.954C414.883 399.387 416.047 399.599 417.217 399.578C419.353 399.505 421.392 398.674 422.969 397.232C424.546 395.791 425.556 393.835 425.818 391.715C425.868 391.305 425.894 390.892 425.897 390.478V371.354C425.904 364.785 423.702 358.404 419.645 353.235C418.942 352.32 418.549 351.206 418.521 350.053C418.494 348.9 418.834 347.768 419.493 346.821C423.979 340.254 430.615 329.171 430.396 321.315C430.442 319.185 429.695 317.113 428.299 315.503C428.213 315.403 428.12 315.311 428.034 315.218C421.577 308.46 410.211 313.777 411.197 323.068C411.532 326.179 411.308 329.326 410.535 332.359C410.087 334.07 409.483 335.737 408.729 337.338C407.974 338.944 406.733 340.273 405.181 341.135C403.629 341.998 401.845 342.351 400.082 342.146C398.883 341.999 397.677 341.926 396.469 341.927H359.42C357.245 341.928 355.125 341.248 353.357 339.983C351.589 338.717 350.262 336.93 349.562 334.871C349.186 333.794 348.995 332.66 349 331.519V302.687C349 301.936 348.849 301.192 348.557 300.501C348.264 299.809 347.835 299.183 347.296 298.66C346.757 298.137 346.118 297.727 345.417 297.456C344.717 297.184 343.968 297.056 343.217 297.079C342.484 297.106 341.764 297.279 341.099 297.59C340.434 297.9 339.838 298.34 339.347 298.885C338.344 299.989 337.787 301.427 337.786 302.919C337.787 303.309 337.71 303.695 337.561 304.056C337.412 304.416 337.194 304.744 336.918 305.02C336.642 305.296 336.314 305.514 335.953 305.663C335.592 305.812 335.205 305.889 334.815 305.888H317.303C314.806 305.887 312.335 306.383 310.032 307.346C307.729 308.309 305.641 309.721 303.889 311.498C302.137 313.275 300.756 315.382 299.826 317.698C298.896 320.013 298.437 322.491 298.473 324.985Z" fill="#F3AD55"/>
<path d="M408.537 392.965C409.034 394.885 410.163 396.582 411.742 397.781C413.322 398.981 415.26 399.614 417.244 399.578C419.379 399.505 421.419 398.674 422.996 397.232C424.572 395.791 425.583 393.835 425.844 391.715C420.446 390.28 413.049 389.288 408.537 392.965Z" fill="#FBDCA3"/>
<path d="M390.078 392.965C390.576 394.885 391.707 396.582 393.287 397.782C394.868 398.982 396.807 399.614 398.792 399.578C400.921 399.498 402.952 398.662 404.52 397.221C406.089 395.781 407.093 393.829 407.353 391.715C402.02 390.28 394.643 389.288 390.078 392.965Z" fill="#FBDCA3"/>
<path d="M351.64 392.965C352.136 394.885 353.265 396.582 354.845 397.781C356.425 398.981 358.363 399.614 360.346 399.578C362.482 399.505 364.521 398.674 366.098 397.232C367.675 395.791 368.685 393.835 368.947 391.715C363.548 390.28 356.165 389.288 351.64 392.965Z" fill="#FBDCA3"/>
<path d="M331.593 392.965C332.09 394.886 333.22 396.583 334.801 397.783C336.382 398.983 338.322 399.615 340.307 399.578C342.435 399.498 344.466 398.662 346.035 397.221C347.604 395.781 348.608 393.829 348.868 391.715C343.535 390.28 336.138 389.288 331.593 392.965Z" fill="#FBDCA3"/>
<path d="M410.482 332.359C416.708 329.859 424.303 325.283 430.33 321.315C430.376 319.185 429.629 317.113 428.233 315.503C428.147 315.403 428.054 315.311 427.968 315.218C421.511 308.46 410.145 313.777 411.131 323.068C411.47 326.178 411.25 329.325 410.482 332.359V332.359Z" fill="#FBDCA3"/>
<path d="M402.946 341.98C402.946 341.98 385.804 363.551 357.759 341.927Z" fill="#FBDCA3"/>
<path d="M348.947 301.887C348.947 301.887 338.533 315.503 348.947 332.306Z" fill="#FBDCA3"/>
<path d="M324.11 348.335C324.11 348.335 333.287 359.722 324.229 368.782Z" fill="#FBDCA3"/>
<path opacity="0.1" d="M323.31 345.928C323.972 346.589 323.76 347.184 323.972 348.123L353.744 340.327C352.143 339.09 350.151 337.629 349.496 335.698C345.937 338.442 338.877 343.084 323.31 345.928Z" fill="black"/>
<path d="M322.582 344.903C323.276 345.552 323.758 346.396 323.965 347.323L353.002 339.758C351.382 338.509 350.166 336.809 349.509 334.871C345.937 337.642 338.15 342.046 322.582 344.903Z" fill="#383F4D"/>
<path opacity="0.1" d="M348.417 336.472C348.417 336.472 339.334 343.303 324.11 345.419Z" fill="black"/>
<path d="M348.417 335.672C348.417 335.672 339.334 342.503 324.11 344.619Z" fill="#F3AD55"/>
<path opacity="0.1" d="M325.712 336.32C325.712 336.32 310.495 341.127 306.486 325.911L325.712 336.32Z" fill="black"/>
<path d="M325.712 335.519C325.712 335.519 310.495 340.327 306.486 325.111L325.712 335.519Z" fill="#FBDCA3"/>
<path d="M298.474 325.911C299.358 325.911 300.075 324.656 300.075 323.107C300.075 321.559 299.358 320.303 298.474 320.303C297.589 320.303 296.873 321.559 296.873 323.107C296.873 324.656 297.589 325.911 298.474 325.911Z" fill="#383F4D"/>
<path opacity="0.1" d="M419.85 380.764L416.648 355.14C416.648 355.14 426.261 370.349 419.85 380.764Z" fill="black"/>
<path d="M415.848 355.14C415.848 355.14 425.461 370.349 419.05 380.764L415.848 355.14Z" fill="#FBDCA3"/>
</g>
<defs>
<linearGradient id="paint0_linear" x1="167.739" y1="230.639" x2="368.08" y2="263.031" gradientUnits="userSpaceOnUse">
<stop stop-color="#808080" stop-opacity="0.25"/>
<stop offset="0.54" stop-color="#808080" stop-opacity="0.12"/>
<stop offset="1" stop-color="#808080" stop-opacity="0.1"/>
</linearGradient>
<clipPath id="clip0">
<rect width="631.827" height="450" fill="white"/>
</clipPath>
</defs>
</svg>
