<svg width="165" height="39" viewBox="0 0 165 39" fill="none" xmlns="http://www.w3.org/2000/svg">
<g clip-path="url(#clip0)">
<path d="M28.5385 0.0165053C27.5372 0.126841 26.5694 0.570243 25.683 1.32403C25.5234 1.46015 25.1694 1.80765 25.0148 1.97986C23.7234 3.42349 22.9237 5.41364 22.8005 7.48939C22.7848 7.76265 22.7932 8.49273 22.8161 8.734C22.9122 9.75279 23.1503 10.619 23.5543 11.4171C24.2183 12.7277 25.2623 13.6104 26.5026 13.9105C26.9902 14.0281 27.5111 14.0528 28.0227 13.9827C29.6441 13.7589 31.2101 12.6081 32.2833 10.8479C32.9912 9.68785 33.4454 8.31843 33.5853 6.92431C33.6218 6.56134 33.6312 6.31592 33.6249 5.88592C33.6187 5.47242 33.6124 5.36415 33.5759 5.03727C33.3713 3.24922 32.5966 1.72825 31.4377 0.838347C30.8646 0.398038 30.1995 0.122716 29.4728 0.0247547C29.2912 6.62879e-06 28.7285 -0.00514922 28.5385 0.0165053Z" fill="#C67472"/>
<path d="M13.3529 0.134037C12.5219 0.205188 11.7859 0.505258 11.1103 1.04766C10.9809 1.15077 10.6061 1.52096 10.4934 1.65501C9.72596 2.56966 9.22587 3.78025 9.05262 5.14037C9.00142 5.54046 8.99519 5.66214 8.99414 6.21794C8.99414 6.78611 9.00247 6.92841 9.0578 7.36254C9.3658 9.77957 10.5946 11.9172 12.3194 13.037C13.6411 13.895 15.133 14.0404 16.4276 13.4372C17.861 12.769 18.9291 11.2119 19.2924 9.2599C19.3905 8.73295 19.4313 8.28341 19.4313 7.71313C19.4313 7.3481 19.4198 7.11299 19.3864 6.78818C19.1473 4.43917 18.0166 2.29125 16.3858 1.08993C15.6686 0.560942 14.8991 0.243342 14.1046 0.149505C13.9376 0.129913 13.5085 0.121663 13.3529 0.134037Z" fill="#C67472"/>
<path d="M3.89437 10.5592C2.67807 10.6148 1.59438 11.2325 0.889659 12.273C0.469962 12.8927 0.184943 13.6579 0.0638364 14.4828C0.0116353 14.8365 0.00641512 14.9334 0.00537109 15.4366C0.00537109 15.9502 0.0126792 16.0687 0.0690566 16.4554C0.276817 17.8938 0.904274 19.2911 1.83555 20.3862C3.00277 21.7597 4.55627 22.5424 6.02417 22.497C6.59421 22.4795 7.111 22.3516 7.60796 22.1042C9.32536 21.2514 10.2452 19.122 9.9382 16.7101C9.82755 15.8419 9.55611 14.9685 9.14475 14.1559C8.14981 12.1936 6.41777 10.8263 4.62518 10.5901C4.48841 10.5726 4.4195 10.5674 4.13449 10.5551C4.09169 10.554 3.9831 10.5551 3.89437 10.5592Z" fill="#C67472"/>
<path d="M38.4252 10.6004C37.9387 10.6427 37.4427 10.7603 36.9688 10.9459C36.6545 11.0686 36.215 11.2955 35.9039 11.4955C35.2075 11.943 34.5424 12.5731 34.0204 13.2794C32.7916 14.9427 32.2487 17.005 32.5578 18.8322C32.9117 20.9193 34.3347 22.3351 36.2327 22.4908C36.4467 22.5083 36.9301 22.497 37.1327 22.4702C38.6935 22.2608 40.1896 21.3195 41.2963 19.85C41.8924 19.0581 42.3559 18.1135 42.6159 17.1638C42.7433 16.6967 42.8247 16.2069 42.8581 15.715C42.8737 15.4799 42.8644 14.8777 42.8414 14.6684C42.7276 13.6073 42.3842 12.7288 41.8047 12.011C41.6074 11.7677 41.3057 11.4842 41.0447 11.2985C40.7084 11.0603 40.2919 10.8593 39.8952 10.7448C39.7188 10.6932 39.4421 10.6376 39.2551 10.6148C39.0913 10.5953 38.587 10.587 38.4252 10.6004Z" fill="#C67472"/>
<path d="M20.5828 15.1438C19.5158 15.1861 18.5909 15.4799 17.7013 16.0594C16.9893 16.5235 16.2867 17.1803 15.5392 18.0816C15.0756 18.6394 14.6841 19.1653 13.7079 20.5357C12.7902 21.8247 12.3016 22.4703 11.741 23.1343C11.1292 23.8592 10.5758 24.4212 9.89204 25.01C8.92631 25.8422 8.11927 26.763 7.49599 27.7426C6.61587 29.1274 6.11266 30.5876 6.01452 32.0426C5.9999 32.2529 5.9999 32.7737 6.01347 32.9789C6.12936 34.6617 6.81946 36.125 8.02636 37.25C9.42851 38.5544 11.0572 39.0153 13.2433 38.7256C14.0441 38.6183 14.8574 38.4358 16.4641 37.9986C18.0855 37.5583 18.9751 37.3644 19.8102 37.2726C20.8836 37.154 22.0278 37.2252 23.3756 37.4943C24.0208 37.6232 24.5146 37.747 25.7925 38.0966C27.3325 38.5173 27.9422 38.6565 28.6897 38.7555C29.1198 38.8132 29.2127 38.8184 29.765 38.8184C30.3069 38.8184 30.3633 38.8153 30.713 38.7658C31.8531 38.606 32.9723 38.0821 33.9516 37.252C34.0925 37.1334 34.4736 36.7571 34.5947 36.6168C35.4738 35.6073 35.9634 34.4163 36.072 33.0284C36.0877 32.8252 36.0887 32.2776 36.072 32.0694C35.9686 30.7082 35.5259 29.3904 34.7314 28.0839C34.0643 26.9847 33.203 25.9834 32.088 25.0069C31.3259 24.3397 30.7924 23.7881 30.1795 23.0312C29.6043 22.3218 29.1689 21.7041 28.3076 20.3759C27.5862 19.2633 27.3032 18.8446 26.9827 18.4095C26.1694 17.3092 25.4073 16.5812 24.5345 16.0687C23.5155 15.4717 22.3305 15.1705 20.8908 15.1448C20.7676 15.1427 20.6288 15.1417 20.5828 15.1438Z" fill="#C67472"/>
<path d="M59.6556 1.13099C59.6556 0.50636 60.7154 0 62.0228 0C63.3303 0 64.3901 0.50636 64.3901 1.13099V37.6925C64.3901 38.3172 63.3303 38.8235 62.0228 38.8235C60.7154 38.8235 59.6556 38.3172 59.6556 37.6925V1.13099Z" fill="#C67472"/>
<path d="M91.9368 15.3594C92.2733 16.0453 92.4415 16.8088 92.4415 17.65C92.4415 18.4912 92.2733 19.2547 91.9368 19.9406C91.6004 20.6135 91.1668 21.1506 90.6362 21.5518C89.5621 22.38 88.4492 22.7941 87.2974 22.7941H84.8709V24.9877C84.8709 25.2853 84.858 25.5118 84.8321 25.6671C84.8192 25.8094 84.7609 25.9777 84.6574 26.1718C84.4762 26.5212 83.9715 26.6959 83.1433 26.6959C82.2374 26.6959 81.7068 26.4565 81.5515 25.9777C81.4739 25.7577 81.4351 25.4212 81.4351 24.9682V14.1947C81.4351 13.8971 81.4415 13.6771 81.4545 13.5347C81.4804 13.3794 81.5451 13.2047 81.6486 13.0106C81.8298 12.6612 82.3345 12.4865 83.1627 12.4865H87.3168C88.4556 12.4865 89.5621 12.9006 90.6362 13.7288C91.1668 14.13 91.6004 14.6735 91.9368 15.3594ZM87.3168 19.3582C87.7051 19.3582 88.0868 19.2159 88.4621 18.9312C88.8374 18.6465 89.0251 18.2194 89.0251 17.65C89.0251 17.0806 88.8374 16.6535 88.4621 16.3688C88.0868 16.0712 87.6986 15.9224 87.2974 15.9224H84.8709V19.3582H87.3168ZM102.974 20.3871C102.974 21.1765 102.773 21.7653 102.372 22.1535C101.984 22.5288 101.55 22.7165 101.072 22.7165H96.4711C96.4711 23.0788 96.6846 23.383 97.1117 23.6288C97.5387 23.8747 97.9658 23.9977 98.3929 23.9977C99.1434 23.9977 99.7323 23.92 100.159 23.7647L100.373 23.6871C100.683 23.5447 100.942 23.4735 101.149 23.4735C101.563 23.4735 101.919 23.7647 102.217 24.3471C102.385 24.6965 102.469 24.9941 102.469 25.24C102.469 26.3918 101.091 26.9677 98.3346 26.9677C97.377 26.9677 96.5228 26.8059 95.7723 26.4824C95.0346 26.1459 94.4587 25.7059 94.0446 25.1624C93.2293 24.1141 92.8217 22.943 92.8217 21.6488C92.8217 20.0182 93.3458 18.7177 94.394 17.7471C95.4552 16.7635 96.7752 16.2718 98.354 16.2718C100.153 16.2718 101.473 16.9059 102.313 18.1741C102.754 18.8471 102.974 19.5847 102.974 20.3871ZM98.8781 20.95C99.3699 20.95 99.6158 20.743 99.6158 20.3288C99.6158 20.0312 99.4993 19.7918 99.2664 19.6106C99.0464 19.4294 98.7229 19.3388 98.2958 19.3388C97.8817 19.3388 97.4676 19.5135 97.0534 19.863C96.6393 20.1994 96.4323 20.5618 96.4323 20.95H98.8781ZM109.991 19.9212L108.729 19.8435V22.5224C108.729 22.8718 108.781 23.1241 108.884 23.2794C109.001 23.4347 109.208 23.5124 109.505 23.5124C109.816 23.5124 110.049 23.5253 110.204 23.5512C110.372 23.5641 110.547 23.6224 110.728 23.7259C111.026 23.8941 111.175 24.3277 111.175 25.0265C111.175 25.8418 110.994 26.34 110.631 26.5212C110.437 26.6118 110.262 26.67 110.107 26.6959C109.965 26.7088 109.751 26.7153 109.466 26.7153C108.121 26.7153 107.098 26.4112 106.399 25.803C105.701 25.1947 105.351 24.1659 105.351 22.7165V19.8435C105.105 19.8824 104.84 19.9018 104.555 19.9018C104.271 19.9018 104.031 19.7918 103.837 19.5718C103.656 19.3518 103.565 18.9765 103.565 18.4459C103.565 17.9153 103.598 17.5335 103.662 17.3006C103.727 17.0547 103.818 16.88 103.934 16.7765C104.141 16.6082 104.4 16.5241 104.711 16.5241L105.351 16.6018V14.6024C105.351 14.3047 105.358 14.0847 105.371 13.9424C105.396 13.8 105.461 13.6447 105.565 13.4765C105.733 13.153 106.231 12.9912 107.059 12.9912C107.939 12.9912 108.464 13.2306 108.632 13.7094C108.696 13.9165 108.729 14.2465 108.729 14.6994V16.6018C109.298 16.55 109.725 16.5241 110.01 16.5241C110.308 16.5241 110.528 16.5371 110.67 16.563C110.825 16.5759 111 16.6341 111.194 16.7377C111.531 16.9059 111.699 17.4041 111.699 18.2324C111.699 19.0477 111.524 19.5459 111.175 19.7271C110.981 19.8177 110.806 19.8759 110.651 19.9018C110.508 19.9147 110.288 19.9212 109.991 19.9212ZM128.183 15.3594C128.519 16.0453 128.687 16.8088 128.687 17.65C128.687 18.4912 128.519 19.2547 128.183 19.9406C127.846 20.6135 127.413 21.1506 126.881 21.5518C125.808 22.38 124.695 22.7941 123.543 22.7941H121.117V24.9877C121.117 25.2853 121.104 25.5118 121.078 25.6671C121.065 25.8094 121.007 25.9777 120.903 26.1718C120.722 26.5212 120.217 26.6959 119.389 26.6959C118.483 26.6959 117.953 26.4565 117.797 25.9777C117.72 25.7577 117.681 25.4212 117.681 24.9682V14.1947C117.681 13.8971 117.687 13.6771 117.7 13.5347C117.726 13.3794 117.791 13.2047 117.894 13.0106C118.076 12.6612 118.58 12.4865 119.409 12.4865H123.563C124.701 12.4865 125.808 12.9006 126.881 13.7288C127.413 14.13 127.846 14.6735 128.183 15.3594ZM123.563 19.3582C123.951 19.3582 124.333 19.2159 124.708 18.9312C125.083 18.6465 125.271 18.2194 125.271 17.65C125.271 17.0806 125.083 16.6535 124.708 16.3688C124.333 16.0712 123.944 15.9224 123.543 15.9224H121.117V19.3582H123.563ZM136.585 17.5724C136.662 16.8477 137.174 16.4853 138.118 16.4853C138.623 16.4853 138.998 16.5241 139.244 16.6018C139.49 16.6794 139.658 16.8153 139.749 17.0094C139.852 17.2035 139.911 17.3782 139.924 17.5335C139.949 17.6759 139.962 17.8959 139.962 18.1935V24.9877C139.962 25.2853 139.949 25.5118 139.924 25.6671C139.911 25.8094 139.859 25.9777 139.768 26.1718C139.587 26.5082 139.141 26.6765 138.429 26.6765C137.73 26.6765 137.258 26.5924 137.012 26.4241C136.779 26.243 136.643 25.9841 136.604 25.6477C136.125 26.3335 135.323 26.6765 134.197 26.6765C133.084 26.6765 132.049 26.1653 131.091 25.143C130.134 24.1206 129.655 22.9365 129.655 21.5906C129.655 20.2318 130.134 19.0477 131.091 18.0382C132.062 17.0159 133.123 16.5047 134.275 16.5047C134.715 16.5047 135.116 16.5824 135.478 16.7377C135.841 16.893 136.093 17.0418 136.235 17.1841C136.378 17.3135 136.494 17.443 136.585 17.5724ZM133.052 21.61C133.052 22.0371 133.22 22.4253 133.556 22.7747C133.893 23.1112 134.301 23.2794 134.779 23.2794C135.258 23.2794 135.653 23.1047 135.964 22.7553C136.287 22.4059 136.449 22.0241 136.449 21.61C136.449 21.183 136.294 20.7882 135.983 20.4259C135.685 20.0635 135.278 19.8824 134.76 19.8824C134.255 19.8824 133.841 20.0635 133.518 20.4259C133.207 20.7882 133.052 21.183 133.052 21.61ZM154.592 16.563C155.421 16.9253 155.835 17.3718 155.835 17.9024C155.835 18.1224 155.731 18.4782 155.524 18.97C155.317 19.4488 155.142 19.8694 155 20.2318L152.865 25.4341C152.671 26.0035 152.347 26.4047 151.894 26.6377C151.7 26.7282 151.454 26.7735 151.156 26.7735C150.859 26.7735 150.568 26.6635 150.283 26.4435C150.011 26.2106 149.83 25.9777 149.739 25.7447L149.584 25.4147C149.481 25.1559 149.099 24.1465 148.439 22.3865C148.309 22.6971 148.115 23.2082 147.856 23.92C147.611 24.6188 147.449 25.0588 147.371 25.24C147.306 25.4082 147.261 25.5247 147.235 25.5894C147.222 25.6412 147.171 25.7447 147.08 25.9C146.989 26.0553 146.886 26.1912 146.769 26.3077C146.459 26.6182 146.103 26.7735 145.702 26.7735C145.301 26.7735 144.964 26.6635 144.692 26.4435C144.421 26.2106 144.239 25.9777 144.149 25.7447L141.218 18.6012C141.088 18.213 141.024 17.9606 141.024 17.8441C141.024 17.3265 141.392 16.9188 142.13 16.6212C142.544 16.453 142.881 16.3688 143.139 16.3688C143.398 16.3688 143.605 16.4271 143.761 16.5435C143.929 16.6471 144.045 16.7571 144.11 16.8735C144.175 16.9771 144.226 17.0871 144.265 17.2035C144.485 17.7212 144.945 18.9377 145.644 20.853L146.789 17.7082C146.866 17.4494 147.009 17.223 147.216 17.0288C147.591 16.6535 147.973 16.4659 148.361 16.4659C148.749 16.4659 149.079 16.5694 149.351 16.7765C149.636 16.9835 149.83 17.1906 149.934 17.3977L150.089 17.7277C150.736 19.5394 151.118 20.5747 151.234 20.8335L152.418 17.6112C152.729 16.783 153.195 16.3688 153.816 16.3688C154.062 16.3688 154.321 16.4335 154.592 16.563ZM156.79 25.803C156.544 25.6477 156.421 25.4018 156.421 25.0653C156.421 24.7288 156.667 24.2177 157.159 23.5318C157.301 23.3118 157.528 23.2018 157.838 23.2018C158.162 23.2018 158.595 23.3635 159.139 23.6871C159.682 23.9977 160.174 24.153 160.614 24.153C161.403 24.153 161.798 23.9977 161.798 23.6871C161.798 23.4412 161.365 23.26 160.498 23.1435C159.682 23.0271 158.873 22.723 158.071 22.2312C157.696 21.9982 157.385 21.6359 157.139 21.1441C156.893 20.6394 156.77 20.0441 156.77 19.3582C156.77 17.3135 158.175 16.2912 160.983 16.2912C161.902 16.2912 162.846 16.5112 163.817 16.9512C164.27 17.1582 164.496 17.4171 164.496 17.7277C164.496 18.0382 164.354 18.42 164.069 18.873C163.785 19.3259 163.493 19.5524 163.196 19.5524C163.04 19.5524 162.749 19.4553 162.322 19.2612C161.908 19.0671 161.455 18.97 160.963 18.97C160.2 18.97 159.818 19.1124 159.818 19.3971C159.818 19.7853 160.258 20.0377 161.138 20.1541C161.992 20.2447 162.82 20.4906 163.623 20.8918C163.998 21.073 164.309 21.39 164.555 21.843C164.813 22.283 164.943 22.8394 164.943 23.5124C164.943 24.1853 164.813 24.7612 164.555 25.24C164.309 25.7059 163.959 26.0553 163.506 26.2882C162.678 26.6894 161.636 26.89 160.381 26.89C159.139 26.89 157.942 26.5277 156.79 25.803Z" fill="#C67472"/>
</g>
<defs>
<clipPath id="clip0">
<rect width="165" height="38.8235" fill="white"/>
</clipPath>
</defs>
</svg>
