<svg width="124" height="112" viewBox="0 0 124 112" fill="none" xmlns="http://www.w3.org/2000/svg">
<g clip-path="url(#clip0)">
<path d="M82.0518 0.0474481C79.1731 0.364673 76.3904 1.63952 73.8419 3.80675C73.3829 4.1981 72.3652 5.19722 71.9208 5.69231C68.2078 9.84298 65.9086 15.5649 65.5544 21.533C65.5093 22.3186 65.5332 24.4177 65.5993 25.1114C65.8755 28.0405 66.5599 30.5309 67.7215 32.8257C69.6307 36.5939 72.6324 39.1316 76.1983 39.9944C77.6001 40.3325 79.0979 40.4037 80.5688 40.2021C85.2304 39.5586 89.733 36.2499 92.8187 31.1892C94.8539 27.8538 96.1597 23.9165 96.562 19.9083C96.6669 18.8647 96.6941 18.1591 96.6759 16.9228C96.658 15.7339 96.6399 15.4226 96.535 14.4828C95.9467 9.34193 93.7193 4.96893 90.3874 2.41035C88.7396 1.1444 86.8273 0.352818 84.7381 0.0711647C84.2158 1.06252e-05 82.598 -0.0148128 82.0518 0.0474481Z" fill="#C67472"/>
<path d="M38.3913 0.385345C36.0021 0.58991 33.886 1.45265 31.9437 3.01211C31.5717 3.30859 30.494 4.37293 30.1699 4.75833C27.9635 7.38807 26.5256 10.8687 26.0275 14.7792C25.8803 15.9295 25.8624 16.2793 25.8594 17.8773C25.8594 19.5109 25.8833 19.92 26.0424 21.1682C26.9279 28.1175 30.461 34.2635 35.4199 37.4831C39.2199 39.95 43.5095 40.3678 47.2314 38.6335C51.3528 36.7124 54.4236 32.2357 55.4682 26.6234C55.7503 25.1083 55.8675 23.8158 55.8675 22.1762C55.8675 21.1267 55.8345 20.4507 55.7384 19.5168C55.051 12.7632 51.8 6.5876 47.1114 3.13367C45.0492 1.61275 42.8369 0.69961 40.5526 0.429815C40.0724 0.373486 38.8388 0.349768 38.3913 0.385345Z" fill="#C67472"/>
<path d="M11.196 30.3591C7.69901 30.519 4.58325 32.295 2.55709 35.2865C1.35041 37.0683 0.530941 39.2682 0.182744 41.6399C0.0326588 42.6568 0.0176502 42.9354 0.0146484 44.3823C0.0146484 45.8588 0.0356603 46.1997 0.197752 47.3115C0.795091 51.4471 2.59911 55.4644 5.27664 58.6131C8.63255 62.562 13.0991 64.8123 17.3195 64.6819C18.9584 64.6314 20.4442 64.2637 21.8731 63.5524C26.8108 61.1004 29.4553 54.9781 28.5728 48.0438C28.2547 45.5474 27.4743 43.0364 26.2915 40.7C23.431 35.0581 18.4511 31.1269 13.2972 30.4479C12.904 30.3977 12.7058 30.3828 11.8864 30.3472C11.7633 30.3442 11.4511 30.3472 11.196 30.3591Z" fill="#C67472"/>
<path d="M110.478 30.4776C109.079 30.599 107.653 30.9372 106.29 31.4709C105.387 31.8236 104.123 32.4759 103.228 33.051C101.226 34.3377 99.3142 36.1492 97.8133 38.1801C94.2803 42.9622 92.7194 48.8917 93.608 54.1451C94.6256 60.1458 98.7168 64.2163 104.174 64.6639C104.789 64.7144 106.179 64.6818 106.762 64.6046C111.249 64.0028 115.55 61.2962 118.732 57.0713C120.446 54.7944 121.779 52.0787 122.526 49.3481C122.893 48.0052 123.127 46.5969 123.223 45.1828C123.268 44.5067 123.241 42.7754 123.175 42.1736C122.848 39.1228 121.86 36.5969 120.194 34.5333C119.627 33.8338 118.759 33.0185 118.009 32.4848C117.042 31.7999 115.845 31.2218 114.704 30.8927C114.197 30.7444 113.401 30.5844 112.864 30.519C112.393 30.4628 110.943 30.439 110.478 30.4776Z" fill="#C67472"/>
<path d="M59.1784 43.5403C56.1107 43.6619 53.4513 44.5067 50.8937 46.1729C48.8466 47.507 46.8265 49.3956 44.6773 51.9868C43.3445 53.5907 42.2188 55.1027 39.4122 59.0428C36.7737 62.7489 35.3689 64.6048 33.7571 66.5141C31.9981 68.5981 30.407 70.2141 28.441 71.9068C25.6644 74.2995 23.3441 76.9471 21.5521 79.7634C19.0216 83.7451 17.5748 87.9433 17.2927 92.1266C17.2506 92.7312 17.2506 94.2286 17.2896 94.8185C17.6228 99.6569 19.607 103.864 23.0769 107.098C27.1083 110.849 31.7909 112.174 38.0764 111.341C40.3789 111.033 42.7171 110.508 47.3367 109.251C51.9983 107.985 54.5559 107.427 56.9571 107.164C60.043 106.823 63.3329 107.027 67.2081 107.801C69.0631 108.172 70.4828 108.527 74.157 109.532C78.5845 110.742 80.3374 111.142 82.4866 111.427C83.7233 111.593 83.9905 111.608 85.5783 111.608C87.1364 111.608 87.2985 111.599 88.304 111.457C91.5818 110.997 94.7998 109.491 97.6152 107.104C98.0206 106.763 99.1161 105.681 99.4644 105.278C101.992 102.376 103.4 98.9514 103.712 94.9609C103.757 94.3767 103.76 92.8023 103.712 92.2035C103.414 88.29 102.142 84.5011 99.8574 80.7448C97.9394 77.5845 95.463 74.7055 92.2573 71.898C90.066 69.9797 88.5322 68.3937 86.7702 66.2176C85.1163 64.1779 83.8645 62.4019 81.3881 58.5833C79.314 55.3843 78.5003 54.1807 77.579 52.9296C75.2405 49.7662 73.0494 47.6731 70.54 46.1997C67.6101 44.483 64.2033 43.6172 60.064 43.5433C59.7098 43.5372 59.3105 43.5342 59.1784 43.5403Z" fill="#C67472"/>
</g>
<defs>
<clipPath id="clip0">
<rect width="123.25" height="111.623" fill="white"/>
</clipPath>
</defs>
</svg>
