<svg width="182" height="57" viewBox="0 0 182 57" fill="none" xmlns="http://www.w3.org/2000/svg">
<g clip-path="url(#clip0)">
<path d="M31.0225 14.0855C29.9341 14.2054 28.882 14.6874 27.9185 15.5069C27.7449 15.6548 27.3602 16.0325 27.1922 16.2197C25.7883 17.7891 24.919 19.9524 24.7851 22.2088C24.7681 22.5059 24.7771 23.2995 24.8021 23.5618C24.9065 24.6692 25.1653 25.6108 25.6045 26.4784C26.3263 27.9031 27.4612 28.8626 28.8094 29.1888C29.3394 29.3166 29.9057 29.3436 30.4618 29.2673C32.2243 29.024 33.9267 27.7731 35.0933 25.8597C35.8628 24.5986 36.3565 23.11 36.5086 21.5946C36.5482 21.2 36.5585 20.9333 36.5517 20.4658C36.5449 20.0163 36.538 19.8986 36.4984 19.5433C36.276 17.5996 35.4338 15.9462 34.1741 14.9789C33.5511 14.5002 32.8281 14.201 32.0382 14.0945C31.8407 14.0676 31.229 14.0619 31.0225 14.0855Z" fill="#34CB79"/>
<path d="M14.5152 14.2133C13.6119 14.2906 12.8118 14.6168 12.0775 15.2064C11.9368 15.3185 11.5294 15.721 11.4068 15.8666C10.5726 16.8609 10.029 18.1769 9.84067 19.6554C9.78501 20.0903 9.77824 20.2226 9.7771 20.8267C9.7771 21.4443 9.78616 21.599 9.84629 22.071C10.1811 24.6983 11.5169 27.022 13.3918 28.2393C14.8285 29.172 16.4503 29.33 17.8575 28.6743C19.4158 27.948 20.5768 26.2554 20.9717 24.1334C21.0784 23.5606 21.1227 23.072 21.1227 22.452C21.1227 22.0552 21.1102 21.7996 21.0739 21.4465C20.814 18.8931 19.5848 16.5582 17.8121 15.2523C17.0325 14.6773 16.196 14.3321 15.3324 14.2301C15.1508 14.2088 14.6844 14.1998 14.5152 14.2133Z" fill="#34CB79"/>
<path d="M4.23311 25.5458C2.91095 25.6063 1.73293 26.2778 0.966871 27.4088C0.510644 28.0825 0.200817 28.9142 0.0691694 29.8109C0.0124247 30.1954 0.00675014 30.3008 0.00561523 30.8478C0.00561523 31.406 0.0135595 31.5349 0.0748439 31.9553C0.300688 33.5189 0.982759 35.0378 1.99509 36.2282C3.2639 37.7212 4.95263 38.5721 6.54829 38.5227C7.16795 38.5036 7.72972 38.3646 8.26993 38.0957C10.1368 37.1686 11.1367 34.8539 10.803 32.2322C10.6827 31.2883 10.3877 30.3389 9.94048 29.4556C8.85895 27.3225 6.97614 25.8362 5.02753 25.5794C4.87886 25.5604 4.80395 25.5548 4.49413 25.5413C4.4476 25.5402 4.32957 25.5413 4.23311 25.5458Z" fill="#34CB79"/>
<path d="M41.77 25.5907C41.2411 25.6366 40.702 25.7644 40.1868 25.9662C39.8452 26.0996 39.3674 26.3462 39.0292 26.5636C38.2722 27.0501 37.5493 27.735 36.9818 28.5028C35.646 30.3109 35.0559 32.5527 35.3918 34.539C35.7766 36.8077 37.3234 38.3467 39.3867 38.516C39.6193 38.535 40.1447 38.5227 40.365 38.4935C42.0616 38.266 43.6879 37.2427 44.891 35.6453C45.5389 34.7844 46.0428 33.7577 46.3254 32.7253C46.4639 32.2176 46.5524 31.6851 46.5887 31.1504C46.6057 30.8949 46.5955 30.2403 46.5705 30.0127C46.4468 28.8593 46.0735 27.9043 45.4436 27.124C45.2291 26.8596 44.9012 26.5513 44.6174 26.3495C44.2519 26.0906 43.7991 25.872 43.3679 25.7476C43.1761 25.6915 42.8753 25.631 42.6721 25.6063C42.494 25.585 41.9458 25.5761 41.77 25.5907Z" fill="#34CB79"/>
<path d="M22.3745 30.5294C21.2147 30.5754 20.2092 30.8948 19.2422 31.5248C18.4682 32.0292 17.7044 32.7432 16.8919 33.723C16.388 34.3294 15.9623 34.901 14.9012 36.3907C13.9036 37.7919 13.3725 38.4936 12.7631 39.2155C12.0981 40.0034 11.4965 40.6144 10.7532 41.2544C9.70342 42.159 8.82613 43.16 8.1486 44.2248C7.19189 45.7302 6.64487 47.3175 6.53819 48.8991C6.5223 49.1277 6.5223 49.6939 6.53705 49.9169C6.66302 51.7462 7.41319 53.3369 8.72514 54.5598C10.2493 55.9777 12.0197 56.4788 14.3962 56.1638C15.2667 56.0472 16.1508 55.8488 17.8973 55.3736C19.6598 54.8949 20.6268 54.6842 21.5347 54.5844C22.7014 54.4555 23.9453 54.5329 25.4104 54.8254C26.1117 54.9655 26.6485 55.1 28.0377 55.48C29.7116 55.9374 30.3744 56.0887 31.187 56.1963C31.6546 56.259 31.7556 56.2647 32.3559 56.2647C32.945 56.2647 33.0063 56.2613 33.3864 56.2075C34.6257 56.0338 35.8424 55.4643 36.9069 54.562C37.0601 54.4331 37.4743 54.024 37.606 53.8715C38.5616 52.7741 39.0938 51.4795 39.2118 49.9707C39.2289 49.7499 39.23 49.1546 39.2118 48.9282C39.0995 47.4486 38.6183 46.0161 37.7546 44.5959C37.0294 43.401 36.0931 42.3125 34.8811 41.251C34.0526 40.5258 33.4727 39.9261 32.8065 39.1034C32.1812 38.3322 31.7079 37.6607 30.7716 36.217C29.9875 35.0075 29.6798 34.5524 29.3315 34.0794C28.4473 32.8834 27.6189 32.092 26.6701 31.5349C25.5624 30.8859 24.2743 30.5585 22.7093 30.5306C22.5754 30.5283 22.4245 30.5272 22.3745 30.5294Z" fill="#34CB79"/>
<path d="M65.9418 14.0676H68.4006V56.2703H65.9418V14.0676Z" fill="#34CB79"/>
<path d="M98.5012 31.7997C98.5012 33.0236 98.0792 34.0435 97.2351 34.8594C96.4051 35.6613 95.132 36.0622 93.4158 36.0622H90.5882V42.2027H88.668V27.4951H93.4158C95.0757 27.4951 96.3348 27.896 97.1929 28.6978C98.0651 29.4997 98.5012 30.5337 98.5012 31.7997ZM93.4158 34.4796C94.4849 34.4796 95.2727 34.2475 95.7791 33.7833C96.2856 33.319 96.5388 32.6579 96.5388 31.7997C96.5388 29.985 95.4978 29.0777 93.4158 29.0777H90.5882V34.4796H93.4158ZM111.438 35.9778C111.438 36.3436 111.417 36.7304 111.375 37.1384H102.132C102.203 38.2779 102.59 39.1712 103.293 39.8183C104.01 40.4513 104.876 40.7678 105.888 40.7678C106.718 40.7678 107.408 40.5779 107.956 40.1981C108.519 39.8042 108.913 39.2837 109.138 38.6366H111.206C110.896 39.7479 110.278 40.6553 109.349 41.3587C108.421 42.048 107.267 42.3926 105.888 42.3926C104.791 42.3926 103.806 42.1464 102.934 41.6541C102.076 41.1617 101.401 40.4654 100.909 39.565C100.416 38.6507 100.17 37.5956 100.17 36.3998C100.17 35.2041 100.409 34.1561 100.887 33.2557C101.366 32.3554 102.034 31.6661 102.892 31.1878C103.764 30.6954 104.763 30.4493 105.888 30.4493C106.986 30.4493 107.956 30.6884 108.8 31.1667C109.644 31.645 110.292 32.3062 110.742 33.1502C111.206 33.9802 111.438 34.9227 111.438 35.9778ZM109.455 35.5769C109.455 34.8454 109.293 34.2194 108.969 33.6989C108.646 33.1643 108.203 32.7634 107.64 32.4961C107.091 32.2147 106.479 32.0741 105.804 32.0741C104.833 32.0741 104.003 32.3836 103.314 33.0025C102.639 33.6215 102.252 34.4796 102.153 35.5769H109.455ZM116.315 32.2218V39.0375C116.315 39.6002 116.435 40.0011 116.674 40.2403C116.913 40.4654 117.328 40.5779 117.919 40.5779H119.333V42.2027H117.602C116.533 42.2027 115.731 41.9565 115.197 41.4642C114.662 40.9718 114.395 40.1629 114.395 39.0375V32.2218H112.897V30.6392H114.395V27.7272H116.315V30.6392H119.333V32.2218H116.315ZM137.118 31.7997C137.118 33.0236 136.696 34.0435 135.852 34.8594C135.022 35.6613 133.749 36.0622 132.033 36.0622H129.205V42.2027H127.285V27.4951H132.033C133.693 27.4951 134.952 27.896 135.81 28.6978C136.682 29.4997 137.118 30.5337 137.118 31.7997ZM132.033 34.4796C133.102 34.4796 133.89 34.2475 134.396 33.7833C134.903 33.319 135.156 32.6579 135.156 31.7997C135.156 29.985 134.115 29.0777 132.033 29.0777H129.205V34.4796H132.033ZM138.787 36.3787C138.787 35.1971 139.026 34.1631 139.505 33.2768C139.983 32.3765 140.637 31.6802 141.467 31.1878C142.311 30.6954 143.247 30.4493 144.274 30.4493C145.286 30.4493 146.166 30.6673 146.911 31.1034C147.657 31.5395 148.212 32.0881 148.578 32.7493V30.6392H150.52V42.2027H148.578V40.0504C148.198 40.7256 147.629 41.2883 146.869 41.7385C146.123 42.1746 145.251 42.3926 144.252 42.3926C143.226 42.3926 142.297 42.1394 141.467 41.633C140.637 41.1265 139.983 40.4161 139.505 39.5017C139.026 38.5874 138.787 37.5464 138.787 36.3787ZM148.578 36.3998C148.578 35.5277 148.402 34.768 148.051 34.1209C147.699 33.4738 147.221 32.9814 146.616 32.6438C146.025 32.2921 145.371 32.1163 144.653 32.1163C143.936 32.1163 143.282 32.2851 142.691 32.6227C142.1 32.9603 141.629 33.4527 141.277 34.0998C140.925 34.7469 140.75 35.5066 140.75 36.3787C140.75 37.265 140.925 38.0387 141.277 38.6999C141.629 39.347 142.1 39.8464 142.691 40.1981C143.282 40.5357 143.936 40.7045 144.653 40.7045C145.371 40.7045 146.025 40.5357 146.616 40.1981C147.221 39.8464 147.699 39.347 148.051 38.6999C148.402 38.0387 148.578 37.272 148.578 36.3998ZM169.169 30.6392L165.56 42.2027H163.577L160.792 33.0236L158.006 42.2027H156.023L152.393 30.6392H154.356L157.014 40.3458L159.884 30.6392H161.847L164.653 40.3669L167.27 30.6392H169.169ZM175.169 42.3926C174.282 42.3926 173.488 42.2449 172.784 41.9495C172.081 41.64 171.525 41.218 171.117 40.6834C170.709 40.1348 170.484 39.5088 170.442 38.8054H172.425C172.482 39.3822 172.749 39.8534 173.227 40.2192C173.72 40.5849 174.36 40.7678 175.147 40.7678C175.879 40.7678 176.456 40.6061 176.878 40.2825C177.3 39.9589 177.511 39.551 177.511 39.0586C177.511 38.5522 177.286 38.1794 176.836 37.9402C176.385 37.687 175.689 37.4408 174.747 37.2017C173.888 36.9766 173.185 36.7515 172.636 36.5265C172.102 36.2873 171.638 35.9426 171.244 35.4925C170.864 35.0283 170.674 34.4234 170.674 33.6778C170.674 33.0869 170.85 32.5453 171.202 32.053C171.553 31.5606 172.053 31.1737 172.7 30.8924C173.347 30.597 174.085 30.4493 174.915 30.4493C176.196 30.4493 177.229 30.7728 178.017 31.4199C178.805 32.067 179.227 32.9533 179.283 34.0787H177.363C177.321 33.4738 177.075 32.9885 176.625 32.6227C176.188 32.2569 175.598 32.0741 174.852 32.0741C174.163 32.0741 173.614 32.2218 173.206 32.5172C172.798 32.8126 172.594 33.1995 172.594 33.6778C172.594 34.0576 172.714 34.3741 172.953 34.6273C173.206 34.8665 173.516 35.0634 173.881 35.2182C174.261 35.3588 174.782 35.5206 175.443 35.7035C176.273 35.9286 176.948 36.1537 177.469 36.3787C177.989 36.5898 178.432 36.9133 178.798 37.3494C179.178 37.7855 179.375 38.3552 179.389 39.0586C179.389 39.6917 179.213 40.2614 178.861 40.7678C178.51 41.2743 178.01 41.6752 177.363 41.9706C176.73 42.252 175.999 42.3926 175.169 42.3926Z" fill="#34CB79"/>
</g>
<defs>
<clipPath id="clip0">
<rect width="181.12" height="56.2703" fill="white"/>
</clipPath>
</defs>
</svg>
