<svg width="47" height="43" viewBox="0 0 47 43" fill="none" xmlns="http://www.w3.org/2000/svg">
<path d="M31.0225 0.0855087C29.9341 0.205435 28.882 0.687425 27.9185 1.50686C27.7449 1.65483 27.3602 2.03255 27.1922 2.21974C25.7883 3.78906 24.919 5.95239 24.7851 8.20883C24.7681 8.50592 24.7771 9.29951 24.8021 9.56178C24.9065 10.6692 25.1653 11.6108 25.6045 12.4784C26.3263 13.9031 27.4612 14.8626 28.8094 15.1888C29.3394 15.3166 29.9057 15.3436 30.4618 15.2673C32.2243 15.024 33.9267 13.7731 35.0933 11.8597C35.8628 10.5986 36.3565 9.11003 36.5086 7.5946C36.5482 7.20001 36.5585 6.93325 36.5517 6.46577C36.5449 6.01631 36.538 5.89858 36.4984 5.54329C36.276 3.59959 35.4338 1.94621 34.1741 0.978889C33.5511 0.50024 32.8281 0.200951 32.0382 0.0944772C31.8407 0.067573 31.229 0.0619455 31.0225 0.0855087Z" fill="#34CB79"/>
<path d="M14.5152 0.213261C13.6119 0.290632 12.8118 0.616823 12.0775 1.20643C11.9368 1.31853 11.5294 1.72095 11.4068 1.86664C10.5726 2.86086 10.029 4.17689 9.84067 5.65539C9.78501 6.09025 9.77824 6.22257 9.7771 6.82669C9.7771 7.44434 9.78616 7.599 9.84629 8.07097C10.1811 10.6983 11.5169 13.022 13.3918 14.2393C14.8285 15.172 16.4503 15.33 17.8575 14.6743C19.4158 13.948 20.5768 12.2554 20.9717 10.1334C21.0784 9.56063 21.1227 9.07196 21.1227 8.45202C21.1227 8.05523 21.1102 7.79964 21.0739 7.44654C20.814 4.8931 19.5848 2.55824 17.8121 1.25233C17.0325 0.677314 16.196 0.33213 15.3324 0.230052C15.1508 0.208775 14.6844 0.199808 14.5152 0.213261Z" fill="#34CB79"/>
<path d="M4.23311 11.5458C2.91095 11.6063 1.73293 12.2778 0.966871 13.4088C0.510644 14.0825 0.200817 14.9142 0.0691694 15.8109C0.0124247 16.1954 0.00675014 16.3008 0.00561523 16.8478C0.00561523 17.406 0.0135595 17.5349 0.0748439 17.9553C0.300688 19.5189 0.982759 21.0378 1.99509 22.2282C3.2639 23.7212 4.95263 24.5721 6.54829 24.5227C7.16795 24.5036 7.72972 24.3646 8.26993 24.0957C10.1368 23.1686 11.1367 20.8539 10.803 18.2322C10.6827 17.2883 10.3877 16.3389 9.94048 15.4556C8.85895 13.3225 6.97614 11.8362 5.02753 11.5794C4.87886 11.5604 4.80395 11.5548 4.49413 11.5413C4.4476 11.5402 4.32957 11.5413 4.23311 11.5458Z" fill="#34CB79"/>
<path d="M41.77 11.5907C41.2411 11.6366 40.702 11.7644 40.1868 11.9662C39.8452 12.0996 39.3674 12.3462 39.0292 12.5636C38.2722 13.0501 37.5493 13.735 36.9818 14.5028C35.646 16.3109 35.0559 18.5527 35.3918 20.539C35.7766 22.8077 37.3234 24.3467 39.3867 24.516C39.6193 24.535 40.1447 24.5227 40.365 24.4935C42.0616 24.266 43.6879 23.2427 44.891 21.6453C45.5389 20.7844 46.0428 19.7577 46.3254 18.7253C46.4639 18.2176 46.5524 17.6851 46.5887 17.1504C46.6057 16.8949 46.5955 16.2403 46.5705 16.0127C46.4468 14.8593 46.0735 13.9043 45.4436 13.124C45.2291 12.8596 44.9012 12.5513 44.6174 12.3495C44.2519 12.0906 43.7991 11.872 43.3679 11.7476C43.1761 11.6915 42.8753 11.631 42.6721 11.6063C42.494 11.585 41.9458 11.5761 41.77 11.5907Z" fill="#34CB79"/>
<path d="M22.3745 16.5294C21.2147 16.5754 20.2092 16.8948 19.2422 17.5248C18.4682 18.0292 17.7044 18.7432 16.8919 19.723C16.388 20.3294 15.9623 20.901 14.9012 22.3907C13.9036 23.7919 13.3725 24.4936 12.7631 25.2155C12.0981 26.0034 11.4965 26.6144 10.7532 27.2544C9.70342 28.159 8.82613 29.16 8.1486 30.2248C7.19189 31.7302 6.64487 33.3175 6.53819 34.8991C6.5223 35.1277 6.5223 35.6939 6.53705 35.9169C6.66302 37.7462 7.41319 39.3368 8.72514 40.5598C10.2493 41.9777 12.0197 42.4788 14.3962 42.1638C15.2667 42.0472 16.1508 41.8488 17.8973 41.3736C19.6598 40.8949 20.6268 40.6842 21.5347 40.5844C22.7014 40.4555 23.9453 40.5329 25.4104 40.8254C26.1117 40.9655 26.6485 41.1 28.0377 41.48C29.7116 41.9374 30.3744 42.0887 31.187 42.1963C31.6546 42.259 31.7556 42.2647 32.3559 42.2647C32.945 42.2647 33.0063 42.2613 33.3864 42.2075C34.6257 42.0338 35.8424 41.4643 36.9069 40.562C37.0601 40.4331 37.4743 40.024 37.606 39.8715C38.5616 38.7741 39.0938 37.4795 39.2118 35.9707C39.2289 35.7499 39.23 35.1546 39.2118 34.9282C39.0995 33.4486 38.6183 32.0161 37.7546 30.5959C37.0294 29.401 36.0931 28.3125 34.8811 27.251C34.0526 26.5258 33.4727 25.9261 32.8065 25.1034C32.1812 24.3322 31.7079 23.6607 30.7716 22.217C29.9875 21.0075 29.6798 20.5524 29.3315 20.0794C28.4473 18.8834 27.6189 18.092 26.6701 17.5349C25.5624 16.8859 24.2743 16.5585 22.7093 16.5306C22.5754 16.5283 22.4245 16.5272 22.3745 16.5294Z" fill="#34CB79"/>
</svg>
