<svg width="64" height="64" viewBox="0 0 64 64" fill="none" xmlns="http://www.w3.org/2000/svg">
<path d="M36.6021 23.6748C37.1196 23.6748 37.5396 23.2554 37.5396 22.7373V20.9067C37.5396 20.3887 37.1196 19.9692 36.6021 19.9692C36.0845 19.9692 35.6646 20.3887 35.6646 20.9067V22.7373C35.6646 23.2554 36.0845 23.6748 36.6021 23.6748Z" fill="#34CB79"/>
<path d="M35.355 26.3662H37.8491C38.3667 26.3662 38.7866 25.9468 38.7866 25.4287C38.7866 24.9111 38.3667 24.4912 37.8491 24.4912H35.355C34.8374 24.4912 34.4175 24.9111 34.4175 25.4287C34.4175 25.9468 34.8374 26.3662 35.355 26.3662Z" fill="#34CB79"/>
<path d="M17.7681 23.6748C18.2856 23.6748 18.7056 23.2554 18.7056 22.7373V20.9067C18.7056 20.3887 18.2856 19.9692 17.7681 19.9692C17.25 19.9692 16.8306 20.3887 16.8306 20.9067V22.7373C16.8306 23.2554 17.25 23.6748 17.7681 23.6748Z" fill="#34CB79"/>
<path d="M16.521 26.3662H19.0146C19.5327 26.3662 19.9521 25.9468 19.9521 25.4287C19.9521 24.9111 19.5327 24.4912 19.0146 24.4912H16.521C16.0029 24.4912 15.5835 24.9111 15.5835 25.4287C15.5835 25.9468 16.0029 26.3662 16.521 26.3662Z" fill="#34CB79"/>
<path d="M27.1849 26.2631C28.1117 26.2631 28.9833 25.8744 29.5751 25.1972C29.9159 24.8075 29.8763 24.2153 29.4862 23.8744C29.0965 23.5336 28.5043 23.5737 28.1634 23.9633C27.9276 24.2333 27.5707 24.3881 27.1849 24.3881C26.7992 24.3881 26.4422 24.2333 26.2064 23.9633C25.8656 23.5737 25.2733 23.5336 24.8836 23.8744C24.4935 24.2153 24.454 24.8075 24.7948 25.1972C25.3866 25.8744 26.2577 26.2631 27.1849 26.2631Z" fill="#34CB79"/>
<path d="M5.59028 24.7319C5.59028 30.5215 7.88179 34.6831 12.4013 37.1021C13.5981 37.7422 14.9418 38.2642 16.4609 38.6733C16.1928 40.2915 15.3881 41.9028 14.5419 43.5952C13.31 46.0596 11.9135 48.8525 12.0092 52.1763C12.0244 52.6938 12.4565 53.1016 12.9736 53.0859C13.4912 53.0713 13.8984 52.6396 13.8837 52.1221C13.8012 49.2695 15.0302 46.8115 16.2192 44.4341C17.1147 42.6431 17.9682 40.9351 18.2934 39.0952C19.852 39.3989 21.5751 39.605 23.4868 39.7168C25.9467 39.8604 28.4248 39.8569 30.8842 39.7168C32.7958 39.605 34.5185 39.3989 36.0766 39.0952C36.4018 40.9351 37.2563 42.6431 38.1518 44.4341C39.2626 46.6548 40.4111 48.9507 40.4882 51.5649C40.5019 52.0366 40.4785 52.5195 40.4208 52.9912C40.1118 55.5122 38.7929 58.1289 36.4184 60.9448C35.7856 61.6948 34.851 62.125 33.853 62.125H33.1923C35.6596 56.8179 34.9453 50.3008 34.9101 50.0015C34.8505 49.4873 34.3852 49.1187 33.8715 49.1782C33.3569 49.2378 32.9882 49.7026 33.0478 50.2173C33.0561 50.2886 33.8168 57.2046 31.0913 62.125H28.1225V50.1094C28.1225 49.5918 27.7026 49.1719 27.185 49.1719C26.6674 49.1719 26.2475 49.5918 26.2475 50.1094V62.125H23.2788C20.5649 57.2231 21.312 50.3101 21.3222 50.2168C21.3818 49.7026 21.0131 49.2378 20.4985 49.1782C19.9843 49.1187 19.519 49.4873 19.4599 50.0015C19.4252 50.3008 18.7104 56.8179 21.1777 62.125H20.517C19.5195 62.125 18.5844 61.6948 17.9521 60.9448C16.3803 59.0815 15.2529 57.2715 14.6 55.5645C14.4155 55.0806 13.8735 54.8384 13.3896 55.0234C12.9062 55.208 12.664 55.75 12.8486 56.2339C13.5869 58.1646 14.7875 60.1011 16.5185 62.1538C17.5082 63.3271 18.9658 64 20.517 64H33.853C35.4047 64 36.8623 63.3271 37.8515 62.1538C38.9428 60.8599 39.8325 59.5947 40.5253 58.3501C43.7011 57.7544 46.1201 56.4268 47.9042 54.2974C50.0527 51.7334 50.8144 48.5527 51.5512 45.4766C51.9819 43.6772 52.3891 41.9775 53.0473 40.3921C53.2456 39.9136 53.019 39.3652 52.5405 39.1665C52.062 38.9683 51.5136 39.1948 51.3154 39.6733C50.6005 41.3965 50.1567 43.2485 49.7275 45.0396C49.0415 47.9048 48.3315 50.8677 46.4672 53.0928C45.2324 54.5669 43.6108 55.5874 41.5415 56.187C41.8754 55.3066 42.104 54.4351 42.2343 53.564C42.2915 53.1831 42.332 52.7993 42.3515 52.4141C45.0366 50.8667 45.7377 47.9404 46.6113 44.293C47.1977 41.8442 47.8627 39.0684 49.2797 36.5107C50.8896 33.606 53.2329 31.4224 56.4448 29.8354C57.2285 29.4487 58.205 29.7812 58.5908 30.5625C58.978 31.3467 58.6459 32.3223 57.8637 32.709C55.9736 33.6426 54.4814 34.8062 53.3012 36.2666C52.9755 36.6689 53.038 37.2593 53.4409 37.585C53.8437 37.9102 54.434 37.8477 54.7592 37.4453C55.7656 36.2002 57.0527 35.2012 58.6943 34.3896C60.3813 33.5562 61.1054 31.4556 60.2851 29.7593C60.2807 29.7505 60.2763 29.7412 60.2719 29.7319C59.4389 28.0459 57.3364 27.3218 55.6415 28.1411C55.6323 28.1455 55.6235 28.1499 55.6142 28.1543C52.0488 29.916 49.4404 32.3521 47.6396 35.6016C46.0986 38.3828 45.4023 41.2905 44.7875 43.8564C44.0678 46.8613 43.5742 48.9175 42.2416 50.1748C41.8832 47.71 40.8022 45.5415 39.8286 43.5952C38.9819 41.9028 38.1772 40.2915 37.9091 38.6733C39.4282 38.2642 40.7719 37.7422 41.9682 37.1021C46.4877 34.6831 48.7797 30.521 48.7797 24.7314C48.7797 22.2695 48.5112 19.9419 47.9863 17.772C51.7382 11.8838 51.1831 5.80811 50.5029 2.6748C50.1997 1.27734 49.0312 0.237793 47.5966 0.0874024C47.0415 0.0292969 46.4833 0 45.9384 0C41.0678 0 37.937 2.28662 36.7592 3.33301C33.8159 1.87598 30.5209 1.08447 27.185 1.08447C23.8486 1.08447 20.5537 1.87598 17.6108 3.33301C16.4326 2.28662 13.3012 0 8.4311 0C7.88618 0 7.32856 0.0292969 6.77339 0.0874024C5.33833 0.237793 4.17036 1.27734 3.86714 2.6748C3.18647 5.80811 2.63179 11.8838 6.38374 17.772C5.85884 19.9419 5.59028 22.2695 5.59028 24.7319ZM9.1352 5.71484C10.6533 5.83496 11.8388 6.31055 12.645 6.75684C12.5034 6.88867 12.3647 7.02344 12.227 7.15967C11.1787 8.19775 10.2416 9.34717 9.4355 10.583C9.01069 8.76611 9.00337 7.06738 9.1352 5.71484ZM44.9345 10.583C44.4179 9.79053 43.85 9.0376 43.2333 8.3252C42.7758 7.79688 42.2915 7.2915 41.7832 6.81201C41.7636 6.79395 41.7446 6.7749 41.725 6.75684C42.5312 6.31104 43.7167 5.83496 45.2343 5.71533C45.3662 7.06689 45.3588 8.7666 44.9345 10.583ZM45.9389 1.875C46.4189 1.875 46.9106 1.90088 47.4013 1.95215C48.0292 2.01807 48.5395 2.46826 48.6704 3.07275C49.2324 5.65869 49.7045 10.4453 47.2499 15.2881C47.2104 15.1768 46.9667 14.5688 46.9008 14.3706C46.6889 13.8452 46.4599 13.332 46.2128 12.8311C47.3881 9.65137 47.289 6.62354 46.9863 4.60986C46.9179 4.1543 46.5288 3.81641 46.0683 3.81201L45.9648 3.81152C43.3041 3.81152 41.3681 4.71875 40.2148 5.47656C39.6733 5.06006 39.1103 4.66943 38.5258 4.30664C39.7714 3.35352 42.2919 1.875 45.9389 1.875ZM39.685 7.45654C44.7197 11.6626 46.9047 18.3286 46.9047 24.7314C46.9047 29.8472 45.0009 33.3525 41.0839 35.4487C37.5141 37.3589 33.2739 37.7832 29.29 37.9121C29.2578 37.9131 25.1123 37.9131 25.08 37.9121C21.0947 37.7822 16.8603 37.3613 13.2861 35.4487C9.36909 33.3525 7.46528 29.8472 7.46528 24.7314C7.46528 18.7974 9.24555 12.8008 13.518 8.52588C17.0927 4.94922 22.144 2.95947 27.185 2.95947C31.7607 2.95947 36.2495 4.58643 39.685 7.45654ZM5.69917 3.07275C5.83052 2.46826 6.34077 2.01807 6.9687 1.95215C7.45942 1.90088 7.95112 1.875 8.4311 1.875C12.0522 1.875 14.5849 3.35693 15.8388 4.30957C15.2563 4.67188 14.6953 5.06152 14.1552 5.47656C13.0019 4.71875 11.0654 3.81152 8.40522 3.81152L8.30171 3.81201C7.84126 3.81641 7.4521 4.1543 7.38374 4.60986C7.081 6.62354 6.98188 9.65137 8.15718 12.8311C7.90913 13.334 7.67915 13.8496 7.46675 14.377C7.39057 14.5654 7.16108 15.1729 7.12007 15.2886C4.66548 10.4453 5.13764 5.65869 5.69917 3.07275Z" fill="#34CB79"/>
</svg>
