<svg width="64" height="64" viewBox="0 0 64 64" fill="none" xmlns="http://www.w3.org/2000/svg">
<g clip-path="url(#clip0)">
<path d="M14.4562 38.288C14.9788 38.5472 15.6167 38.3381 15.8813 37.8144C16.147 37.2917 15.9368 36.6506 15.4152 36.3819C15.2606 36.3019 11.6083 34.3605 10.6515 28.624C10.5736 28.1525 10.1907 27.791 9.71383 27.7397C9.22633 27.6854 8.78695 27.9605 8.6087 28.4032C6.29408 34.192 10.6588 40.8449 10.8455 41.1254C11.0502 41.4336 11.3895 41.6 11.733 41.6C11.9356 41.6 12.1415 41.5414 12.3238 41.4207C12.8135 41.0944 12.9467 40.433 12.6215 39.9424C12.5948 39.9019 10.789 37.1402 10.2321 33.888C11.987 37.0165 14.3186 38.2186 14.4562 38.288Z" fill="#34CB79"/>
<path d="M19.409 40.5119C19.9861 40.3966 20.3615 39.8345 20.2464 39.2575C20.1301 38.6804 19.5744 38.305 18.9909 38.4213C16.8501 38.849 12.7999 41.1796 12.7999 46.9333C12.7999 51.1081 13.6745 54.0043 14.3498 55.6149C12.0148 56.0683 10.6665 57.537 10.6665 59.7333C10.6665 62.2058 12.9098 63.9999 15.9999 63.9999H17.0665C18.835 63.9999 19.923 62.674 20.0404 62.5236C20.403 62.0596 20.3209 61.3888 19.8559 61.026C19.3919 60.6623 18.721 60.7465 18.3594 61.2095C18.354 61.217 17.8121 61.8666 17.0666 61.8666H15.9999C14.4095 61.8666 12.7999 61.1339 12.7999 59.7333C12.7999 59.2053 12.7999 57.5999 15.9999 57.5999C16.3914 57.5999 16.7498 57.3834 16.9364 57.0388C17.123 56.6943 17.1039 56.274 16.8905 55.9465C16.8703 55.9156 14.9331 52.8766 14.9331 46.9331C14.9333 41.5241 19.2319 40.5503 19.409 40.5119Z" fill="#34CB79"/>
<path d="M49.6502 55.6148C50.3255 54.0042 51.2001 51.1082 51.2001 46.9332C51.2001 41.1796 47.15 38.8489 45.0092 38.4212C44.4311 38.3071 43.87 38.6793 43.7537 39.2574C43.6385 39.8346 44.014 40.3967 44.5911 40.5118C44.7746 40.5492 49.0668 41.4708 49.0668 46.9332C49.0668 52.8767 47.1297 55.9156 47.1127 55.9412C46.8951 56.2687 46.8738 56.6899 47.0593 57.0367C47.245 57.3833 47.6066 57.5999 48.0001 57.5999C51.2001 57.5999 51.2001 59.2053 51.2001 59.7333C51.2001 61.1338 49.5905 61.8667 48.0001 61.8667H46.9335C46.1975 61.8667 45.6556 61.2278 45.6342 61.2022C45.2705 60.7467 44.606 60.6657 44.1441 61.0262C43.679 61.3888 43.5968 62.0598 43.9596 62.5238C44.077 62.6742 45.165 64.0001 46.9335 64.0001H48.0001C51.0913 64.0001 53.3335 62.2059 53.3335 59.7334C53.3335 57.5371 51.9852 56.0682 49.6502 55.6148Z" fill="#34CB79"/>
<path d="M38.5791 55.5477L40.5184 43.9094C40.6154 43.328 40.2229 42.7787 39.6416 42.6816C39.0581 42.5856 38.511 42.9771 38.415 43.5574L36.4299 55.4668H36.2666C35.6767 55.4668 35.2 55.9446 35.2 56.5334C35.2 57.1221 35.6767 57.6 36.2666 57.6H37.3332C40.5332 57.6 40.5332 59.2054 40.5332 59.7334C40.5332 61.1339 38.9236 61.8667 37.3332 61.8667H36.2666C34.5024 61.8667 33.0666 60.431 33.0666 58.6668V43.7334C33.0666 43.1446 32.5899 42.6667 32 42.6667C31.4101 42.6667 30.9334 43.1446 30.9334 43.7334V58.6668C30.9334 60.431 29.4976 61.8667 27.7334 61.8667H26.6667C25.0764 61.8667 23.4667 61.134 23.4667 59.7334C23.4667 59.2054 23.4667 57.6 26.6667 57.6H27.7334C28.3232 57.6 28.8 57.1221 28.8 56.5334C28.8 55.9446 28.3232 55.4668 27.7334 55.4668H27.5701L25.5851 43.5574C25.4902 42.9771 24.9409 42.5856 24.3585 42.6816C23.7771 42.7787 23.3846 43.328 23.4817 43.9094L25.421 55.5477C22.8375 55.9051 21.3335 57.4134 21.3335 59.7334C21.3335 62.2059 23.5767 64 26.6669 64H27.7335C29.4764 64 31.0262 63.1595 32.0001 61.8635C32.9737 63.1595 34.5236 64 36.2665 64H37.3331C40.4244 64 42.6665 62.2059 42.6665 59.7334C42.6665 57.4134 41.1625 55.9051 38.5791 55.5477Z" fill="#34CB79"/>
<path d="M58.5536 9.12325C56.2091 4.43313 50.5611 0 46.9334 0C44.8736 0 41.3291 3.19362 39.5489 4.93437C37.4912 3.17125 34.9866 2.13337 32 2.13337C29.0134 2.13337 26.5087 3.17125 24.4512 4.9345C22.6709 3.19363 19.1264 0 17.0666 0C13.4389 0 7.79085 4.43313 5.44635 9.12325C4.74023 10.5334 4.2666 12.4395 4.2666 13.8667C4.2666 16.8075 6.6591 19.2001 9.59998 19.2001C12.2506 19.2001 13.4367 17.4573 14.3882 16.0566C14.5045 15.887 14.6197 15.7164 14.7541 15.5254L19.0207 9.12537C19.3482 8.63475 19.216 7.97225 18.7252 7.64587C18.2325 7.31737 17.5721 7.45062 17.2457 7.94137L12.9951 14.3179C12.8692 14.496 12.7466 14.6762 12.6239 14.8565C11.6649 16.2687 11.0505 17.0666 9.59985 17.0666C7.8356 17.0666 6.39985 15.6309 6.39985 13.8666C6.39985 12.7584 6.79235 11.2 7.35448 10.0767C9.45585 5.873 14.5364 2.13325 17.0665 2.13325C17.9764 2.13325 20.6846 4.25163 22.9427 6.44688C18.9352 11.1061 17.0665 18.9066 17.0665 26.6666C17.0665 36.5151 21.3929 40.5332 31.9999 40.5332C42.6069 40.5332 46.9332 36.5151 46.9332 26.6666C46.9332 18.9055 45.0645 11.1061 41.057 6.44688C43.3151 4.25163 46.0224 2.13325 46.9332 2.13325C49.4634 2.13325 54.5439 5.873 56.6464 10.0767C57.2075 11.2 57.6 12.7584 57.6 13.8666C57.6 15.6309 56.1642 17.0666 54.4 17.0666C52.8971 17.0666 52.304 16.2772 51.3035 14.7659L46.7541 7.94137C46.4277 7.45075 45.7654 7.31737 45.2746 7.64587C44.784 7.97225 44.6517 8.63462 44.9791 9.12537L49.5242 15.9435C50.5355 17.4699 51.68 19.2 54.4 19.2C57.3407 19.2 59.7334 16.8075 59.7334 13.8666C59.7334 12.4395 59.2597 10.5334 58.5536 9.12325ZM44.8 26.6666C44.8 35.3301 41.4496 38.4 32 38.4C22.5504 38.4 19.2 35.3301 19.2 26.6666C19.2 15.5167 23.1584 4.26662 32 4.26662C40.8416 4.26662 44.8 15.5167 44.8 26.6666Z" fill="#34CB79"/>
<path d="M37.4516 31.5117C37.2693 31.8669 36.5568 31.9959 36.2665 32.0002C35.0175 32.0002 33.7268 30.9367 33.2606 29.7143C35.0143 29.3175 36.2665 28.1282 36.2665 26.6668C36.2665 24.8727 34.3924 23.4668 31.9999 23.4668C29.6074 23.4668 27.7333 24.8727 27.7333 26.6668C27.7333 28.1282 28.9855 29.3174 30.7391 29.7143C30.274 30.9367 28.9834 32.0002 27.7406 32.0002C27.4345 31.9959 26.7369 31.8668 26.5418 31.4999C26.2655 30.9794 25.6201 30.782 25.0996 31.0583C24.5791 31.3345 24.3808 31.9799 24.658 32.5004C25.5006 34.0877 27.5071 34.1335 27.7333 34.1335C29.3898 34.1335 30.9919 33.1874 31.9999 31.8338C33.0079 33.1874 34.61 34.1335 36.2665 34.1335C36.4948 34.1335 38.5236 34.0867 39.3481 32.4888C39.618 31.965 39.4121 31.3219 38.8884 31.052C38.3646 30.7822 37.7225 30.9868 37.4516 31.5117ZM31.9999 27.7335C30.7178 27.7335 29.8665 27.0914 29.8665 26.6669C29.8665 26.2424 30.7178 25.6003 31.9999 25.6003C33.3023 25.6003 34.1333 26.2318 34.1333 26.6669C34.1333 27.102 33.3023 27.7335 31.9999 27.7335Z" fill="#34CB79"/>
<path d="M36.8002 19.2C37.6823 19.2 38.4002 18.4821 38.4002 17.6C38.4002 16.7179 37.6823 16 36.8002 16C35.9181 16 35.2002 16.7179 35.2002 17.6C35.2002 18.4821 35.9181 19.2 36.8002 19.2Z" fill="#34CB79"/>
<path d="M27.2001 19.2C28.0822 19.2 28.8001 18.4821 28.8001 17.6C28.8001 16.7179 28.0822 16 27.2001 16C26.318 16 25.6001 16.7179 25.6001 17.6C25.6001 18.4821 26.318 19.2 27.2001 19.2Z" fill="#34CB79"/>
</g>
<defs>
<clipPath id="clip0">
<rect width="64" height="64" fill="white"/>
</clipPath>
</defs>
</svg>
