<svg width="64" height="64" viewBox="0 0 64 64" fill="none" xmlns="http://www.w3.org/2000/svg">
<path d="M40.9141 42.1057C41.4318 42.1057 41.8516 41.686 41.8516 41.1682C41.8516 40.6504 41.4318 40.2307 40.9141 40.2307C40.3963 40.2307 39.9766 40.6504 39.9766 41.1682C39.9766 41.686 40.3963 42.1057 40.9141 42.1057Z" fill="#C67472"/>
<path d="M45.3896 40.2622C45.2074 40.0762 45.3857 39.9418 43.6242 37.8833C42.87 37.0559 42.0225 36.3179 41.0946 35.6819C39.7412 34.7273 37.765 33.8444 36.0509 33.4811C35.654 31.9333 34.523 30.4797 32.8041 29.3308C30.0724 27.5013 27.1057 27.9663 25.957 28.251C25.6062 28.338 25.3367 28.6187 25.2642 28.9727C24.8422 31.0328 25.1009 33.0154 26.0575 34.7738C24.4457 35.6159 22.995 36.7609 21.7834 38.1661L19.3751 35.7578C17.732 34.1167 15.059 34.1167 13.4151 35.7588C11.9805 37.1919 11.7776 39.5186 12.9525 41.1677C11.7917 42.8109 11.946 45.1066 13.4157 46.5777C14.2111 47.3731 15.2691 47.8111 16.395 47.8111C17.5216 47.8111 18.58 47.3731 19.3756 46.5776L21.783 44.1693C22.9947 45.5746 24.4455 46.7198 26.0574 47.5621C25.106 49.3141 24.8422 51.3039 25.2642 53.3633C25.3367 53.7173 25.6062 53.9979 25.957 54.0849C27.9457 54.5782 30.5967 54.4808 32.8035 53.0057C34.523 51.8563 35.6541 50.4027 36.0509 48.8548C37.3294 48.5528 39.1741 47.9457 41.0789 46.6472C42.1537 45.9144 42.9915 45.1361 43.6241 44.4526C43.6241 44.4526 44.976 42.8487 45.6501 41.6187C45.9167 41.1321 45.7295 40.6092 45.3896 40.2622ZM20.4251 42.3247C20.4955 42.4377 20.5681 42.5487 20.6411 42.6593L18.0496 45.2519C17.6085 45.6932 17.0209 45.9362 16.3951 45.9362C15.7701 45.9362 15.183 45.6932 14.742 45.2523C13.8304 44.3397 13.8302 42.8557 14.7417 41.9441C14.9574 41.7284 15.131 41.4782 15.13 41.1648C15.1291 40.8648 14.9569 40.6076 14.7422 40.3927C14.3006 39.9502 14.0574 39.3624 14.0574 38.7374C14.0574 38.1133 14.3005 37.5259 14.7412 37.0844C15.6535 36.1731 17.1377 36.1732 18.0495 37.0841L20.6414 39.6759C20.5682 39.7867 20.4955 39.8979 20.425 40.0111C19.9869 40.7138 19.9869 41.6221 20.4251 42.3247ZM27.0015 29.9534C28.0612 29.7897 30.0112 29.717 31.7615 30.8893C32.7726 31.5652 33.5121 32.3463 33.9326 33.1633C33.5677 33.1358 33.2006 33.1204 32.831 33.1204C31.0739 33.1204 29.3697 33.4293 27.7805 34.0114C27.6302 33.7487 27.4985 33.4832 27.3907 33.2166C26.9904 32.2249 26.8584 31.1074 27.0015 29.9534ZM31.7609 51.4472C30.011 52.6189 28.0611 52.5463 27.0015 52.3826C26.8584 51.2286 26.9904 50.1109 27.3909 49.1188C27.4975 48.8541 27.6294 48.5887 27.7805 48.3246C29.3697 48.9067 31.0739 49.2156 32.831 49.2156C33.2006 49.2156 33.5679 49.2002 33.9326 49.1727C33.5121 49.9897 32.7724 50.7709 31.7609 51.4472ZM37.6429 46.3964C36.1395 47.0103 34.5094 47.3404 32.8309 47.3404C31.079 47.3404 29.3877 46.9873 27.8375 46.3291C27.7917 46.3056 27.7451 46.2852 27.6972 46.2697C25.39 45.2568 23.4052 43.5608 22.016 41.3326C21.9536 41.2324 21.9536 41.1031 22.016 41.0029C23.4031 38.7781 25.3841 37.0839 27.687 36.0706C27.7427 36.0534 27.7969 36.0296 27.8497 36.0014C29.3966 35.3464 31.0836 34.9952 32.8309 34.9952C34.5094 34.9952 36.1395 35.3254 37.6429 35.9392C36.6177 37.4816 36.0625 39.2986 36.0625 41.1677C36.0625 43.0368 36.6177 44.8541 37.6429 46.3964ZM39.3362 45.5518C38.4299 44.2754 37.9375 42.7447 37.9375 41.1679C37.9375 39.5912 38.4299 38.0603 39.3362 36.7841C40.9492 37.7499 42.5319 39.1942 43.7469 41.1679C42.7096 42.9076 41.1146 44.4261 39.3362 45.5518Z" fill="#C67472"/>
<path d="M58.8014 20.5089C56.778 16.4979 53.8191 12.928 50.2428 10.1839C50.0223 10.0146 50.1618 9.21187 50.1249 8.98238C51.7786 8.2575 52.9374 6.60563 52.9374 4.6875C52.9374 2.10275 50.8345 0 48.2499 0H15.7499C13.1651 0 11.0624 2.10275 11.0624 4.6875C11.0624 6.60575 12.2211 8.25763 13.8749 8.98238C13.7521 9.1755 14.0034 9.996 13.7555 10.1861C10.1321 12.9655 7.14575 16.5895 5.11925 20.6664C2.99175 24.9464 1.94313 29.5591 2.00238 34.3765C2.202 50.5859 15.5576 64 31.9988 64C44.7788 64 56.5176 55.5231 60.5109 43.3592C60.6724 42.8672 60.4043 42.3376 59.9124 42.1763C59.42 42.0148 58.8906 42.283 58.7294 42.7749C54.994 54.1675 44.0084 62.125 31.9989 62.125C16.5181 62.125 4.06663 49.757 3.87713 34.3535C3.82163 29.8364 4.80438 25.5122 6.79813 21.501C8.69825 17.6785 11.4986 14.2804 14.8971 11.6734C15.4311 11.2633 15.7499 10.6157 15.7499 9.94125V9.375H19.1565C19.6744 9.375 20.094 8.95525 20.094 8.4375C20.094 7.91975 19.6744 7.5 19.1565 7.5H15.7499C14.1991 7.5 12.9374 6.23837 12.9374 4.6875C12.9374 3.13663 14.199 1.875 15.7499 1.875H48.2499C49.8006 1.875 51.0624 3.13663 51.0624 4.6875C51.0624 6.23837 49.8006 7.5 48.2499 7.5H22.9064C22.3885 7.5 21.9689 7.91975 21.9689 8.4375C21.9689 8.95525 22.3885 9.375 22.9064 9.375H48.2499V9.94125C48.2499 10.6171 48.5694 11.2647 49.1029 11.6725C52.4554 14.2449 55.2303 17.5924 57.1273 21.3533C59.1163 25.2964 60.1249 29.5514 60.1249 34C60.1249 35.7759 59.9583 37.5531 59.6298 39.2825C59.5331 39.7911 59.8671 40.2819 60.3759 40.3785C60.8723 40.4728 61.3743 40.1457 61.4719 39.6325C61.8223 37.788 61.9999 35.893 61.9999 34C61.9999 29.2552 60.9236 24.7162 58.8014 20.5089Z" fill="#C67472"/>
<path d="M56.5008 26.3199C56.0127 26.0378 55.4454 25.9676 54.9034 26.1219C53.1052 26.6341 51.362 26.889 49.5743 26.9013C46.1214 26.9263 44.026 26.036 41.6044 25.0065L41.2903 24.8731C38.5623 23.7169 35.9578 22.7494 31.7015 22.6205C28.0569 22.5109 25.5458 23.1071 23.3743 23.7681C22.9685 23.8915 22.5752 24.017 22.1947 24.1384C19.7494 24.9186 17.8179 25.5348 14.79 25.0125C13.274 24.7511 11.777 24.244 10.3408 23.5055C9.82403 23.2399 9.21553 23.2063 8.67041 23.4139C8.12516 23.6216 7.69241 24.0521 7.48303 24.5951C6.29329 27.6814 5.71091 30.9571 5.75203 34.3318C5.83753 41.3049 8.60141 47.8278 13.5347 52.6986C18.4679 57.568 25.0255 60.2499 31.9997 60.2499H32.0567C39.0567 60.2344 45.6349 57.497 50.5795 52.5421C55.5257 47.5869 58.2497 41.0019 58.2497 33.9999C58.2497 31.823 57.9868 29.6705 57.4687 27.602C57.3319 27.0568 56.9883 26.6014 56.5008 26.3199ZM49.2523 51.2176C44.6609 55.8186 38.5524 58.3605 32.0545 58.3749H31.9997C25.5219 58.3749 19.432 55.885 14.852 51.364C10.2723 46.8421 7.70641 40.785 7.62691 34.3085C7.58879 31.1734 8.12903 28.1321 9.23266 25.2694C9.27503 25.1595 9.39016 25.1248 9.48354 25.1729C11.0894 25.9986 12.7675 26.5663 14.4715 26.8603C17.9519 27.4605 20.2897 26.7144 22.7649 25.9248C23.1392 25.8053 23.5264 25.6818 23.9202 25.562C25.939 24.9474 28.2722 24.3919 31.6449 24.4946C35.8963 24.6234 38.4814 25.7191 40.5588 26.5995C43.2803 27.7529 45.4682 28.8045 49.5874 28.7764C51.5195 28.7631 53.4809 28.4769 55.4173 27.9253C55.5293 27.8934 55.622 27.9468 55.6499 28.058C56.1307 29.9774 56.3747 31.9765 56.3747 33.9999C56.3747 40.5016 53.8452 46.6164 49.2523 51.2176Z" fill="#C67472"/>
<path d="M50.7485 32.6875C49.1978 32.6875 47.936 33.9491 47.936 35.5C47.936 37.0509 49.1978 38.3125 50.7485 38.3125C52.2993 38.3125 53.561 37.0509 53.561 35.5C53.561 33.9491 52.2993 32.6875 50.7485 32.6875ZM50.7485 36.4375C50.2315 36.4375 49.811 36.017 49.811 35.5C49.811 34.983 50.2315 34.5625 50.7485 34.5625C51.2655 34.5625 51.686 34.983 51.686 35.5C51.686 36.017 51.2654 36.4375 50.7485 36.4375Z" fill="#C67472"/>
</svg>
