<svg width="64" height="64" viewBox="0 0 64 64" fill="none" xmlns="http://www.w3.org/2000/svg">
<g clip-path="url(#clip0)">
<path d="M25.7869 16.561C24.1279 16.561 22.7783 17.9107 22.7783 19.5696C22.7783 21.2287 24.128 22.5784 25.7869 22.5784C27.4459 22.5784 28.7957 21.2287 28.7957 19.5696C28.7957 17.9107 27.446 16.561 25.7869 16.561ZM25.7869 20.7032C25.162 20.7032 24.6535 20.1947 24.6535 19.5696C24.6535 18.9447 25.162 18.4363 25.7869 18.4363C26.4119 18.4363 26.9204 18.9447 26.9204 19.5696C26.9204 20.1947 26.412 20.7032 25.7869 20.7032Z" fill="#34CB79"/>
<path d="M38.2132 16.561C36.5541 16.561 35.2046 17.9107 35.2046 19.5696C35.2046 21.2287 36.5543 22.5784 38.2132 22.5784C39.8723 22.5784 41.2218 21.2287 41.2218 19.5696C41.2218 17.9107 39.8721 16.561 38.2132 16.561ZM38.2132 20.7032C37.5883 20.7032 37.0798 20.1947 37.0798 19.5696C37.0798 18.9447 37.5883 18.4363 38.2132 18.4363C38.8381 18.4363 39.3466 18.9447 39.3466 19.5696C39.3466 20.1947 38.8381 20.7032 38.2132 20.7032Z" fill="#34CB79"/>
<path d="M55.6072 61.3751C54.8927 59.3458 52.9668 57.9826 50.8146 57.9826H49.6776C50.4556 55.9482 50.5273 53.6605 49.7944 51.5449L45.618 39.4909C46.1364 39.2886 46.6101 39.0687 47.0378 38.8302C50.4775 37.0989 52.6131 33.6365 52.6131 29.787C52.6131 27.5211 51.8808 25.3789 50.4952 23.592C49.3036 22.0553 48.4827 20.2693 48.1217 18.4275C47.978 17.6948 47.64 16.6156 47.3647 15.8162C48.616 15.3072 50.6411 14.1008 51.2768 11.4908C52.0658 8.25076 49.8636 4.90686 47.5396 2.85786C44.8324 0.47108 41.6917 -0.54004 39.5379 0.281682C38.2009 0.791868 37.3275 1.62872 36.9421 2.7691C36.6923 3.50819 36.6946 4.27566 36.81 4.97437C35.2813 4.28653 33.6447 3.92737 32 3.92737C30.3561 3.92737 28.7201 4.28603 27.1923 4.97299C27.3075 4.27466 27.3097 3.50769 27.06 2.7691C26.6746 1.62872 25.8013 0.791868 24.4642 0.281682C22.3105 -0.539915 19.1697 0.471205 16.4628 2.85786C14.1388 4.90686 11.9365 8.25076 12.7256 11.4908C13.3612 14.1005 15.3858 15.3068 16.6371 15.8159C16.3638 16.6065 16.0261 17.6756 15.8787 18.4275C15.5175 20.2693 14.6968 22.0552 13.5051 23.592C12.1196 25.3789 11.3873 27.5211 11.3873 29.787C11.3873 31.7567 11.954 33.6663 13.026 35.3092C13.2058 35.5848 13.5059 35.7345 13.8121 35.7345C13.9877 35.7345 14.1655 35.6852 14.3237 35.582C14.7573 35.299 14.8795 34.718 14.5966 34.2844C13.724 32.947 13.2627 31.3918 13.2627 29.7868C13.2627 28.4529 13.5756 27.1724 14.174 26.0154L15.8407 27.5798C16.6732 28.3612 17.7603 28.7915 18.9021 28.7915H21.216C22.4109 28.7915 23.5341 28.3262 24.379 27.4813C24.8697 26.9906 25.5221 26.7203 26.2159 26.7203H27.5727C27.8371 27.0659 28.1922 27.3404 28.6104 27.5077L31.0626 28.4887V30.9606C31.0626 30.9937 31.0644 31.0263 31.0678 31.0585H29.446C28.5163 31.0585 27.7603 30.3023 27.7603 29.3728C27.7603 28.855 27.3405 28.4352 26.8226 28.4352C26.3048 28.4352 25.885 28.855 25.885 29.3728C25.885 31.2276 27.3107 32.7549 29.1237 32.9184L29.4776 35.1963C29.6591 36.2853 30.5922 37.0758 31.6962 37.0758H32.3044C33.4084 37.0758 34.3415 36.2855 34.5248 35.1861L34.877 32.9184C36.6899 32.7549 38.1157 31.2276 38.1157 29.3728C38.1157 28.855 37.6959 28.4352 37.1781 28.4352C36.6602 28.4352 36.2405 28.855 36.2405 29.3728C36.2405 30.3024 35.4843 31.0585 34.5548 31.0585H32.9329C32.9362 31.0263 32.938 30.9936 32.938 30.9606V28.4887L35.3902 27.5078C35.8083 27.3405 36.1635 27.066 36.4279 26.7205H37.7866C38.4805 26.7205 39.133 26.9907 39.6235 27.4814C40.4685 28.3263 41.5918 28.7916 42.7865 28.7916H45.1005C46.2422 28.7916 47.3293 28.3613 48.1618 27.5799L49.8273 26.0168C50.4253 27.1735 50.7381 28.4535 50.7381 29.7871C50.7381 32.9316 48.989 35.759 46.1735 37.1661C46.1533 37.1762 46.1337 37.1868 46.1144 37.1982C43.5534 38.6214 38.8049 39.343 32.0004 39.343C25.1957 39.343 20.4474 38.6214 17.8863 37.1983C17.8672 37.187 17.8474 37.1762 17.8273 37.1662C17.5374 37.0212 17.2528 36.8573 16.9813 36.6788C16.5489 36.3945 15.9675 36.5141 15.6827 36.9468C15.3982 37.3794 15.518 37.9608 15.9507 38.2455C16.2755 38.4591 16.6157 38.6559 16.9626 38.8305C17.3903 39.0691 17.8641 39.289 18.3825 39.4912L15.9947 46.3829C15.8252 46.8722 16.0845 47.4063 16.5737 47.5759C16.6753 47.6111 16.7789 47.6278 16.8807 47.6278C17.2691 47.6278 17.6323 47.3845 17.7666 46.997L20.1671 40.0687C23.0526 40.8399 26.9647 41.2186 32.0004 41.2186C37.0362 41.2186 40.9482 40.84 43.8337 40.0687L48.0228 52.1594C48.9578 54.8581 48.2571 57.9067 46.2375 59.9262C44.8195 61.3442 42.9342 62.1252 40.9287 62.1252H39.5842C38.7757 62.1252 37.977 61.9955 37.21 61.7399L34.9676 60.9924C33.054 60.3546 30.9466 60.3546 29.0332 60.9924L26.7909 61.7399C26.0239 61.9955 25.2252 62.1252 24.4166 62.1252H23.0722C21.0667 62.1252 19.1814 61.3442 17.7633 59.9262C15.7438 57.9067 15.0431 54.8581 15.9781 52.1594L16.4673 50.7474C16.6368 50.2581 16.3775 49.7241 15.8883 49.5546C15.3989 49.3852 14.865 49.6443 14.6953 50.1335L14.2061 51.5454C13.4732 53.661 13.5449 55.9486 14.3229 57.9831H13.1859C11.0336 57.9831 9.10766 59.3463 8.39332 61.3756C8.18192 61.9762 8.27581 62.6455 8.64435 63.1661C9.0144 63.6885 9.61709 64.0004 10.2568 64.0004H24.4167C25.4272 64.0004 26.4255 63.8384 27.384 63.519L29.6264 62.7715C31.1573 62.2611 32.8437 62.2609 34.3748 62.7715L36.6173 63.519C37.5758 63.8384 38.574 64.0004 39.5844 64.0004H53.7445C54.3842 64.0004 54.9869 63.6885 55.3568 63.1661C55.725 62.645 55.8187 61.9757 55.6072 61.3751V61.3751ZM32.3042 35.2007H31.696C31.5123 35.2007 31.3572 35.0693 31.3287 34.8984L31.0235 32.9338H32.9768L32.6733 34.8881C32.643 35.0692 32.4878 35.2007 32.3042 35.2007ZM49.4546 11.047C49.2919 11.7149 48.9922 12.252 48.6344 12.6829C48.6562 12.5338 48.672 12.3806 48.679 12.223C48.7195 11.3014 48.3596 10.3123 47.7396 9.6418C47.1968 9.0546 46.4966 8.73019 45.7146 8.70331C44.7348 8.67056 44.1247 9.05873 43.7855 9.39102C43.7767 9.39977 43.7677 9.40852 43.7589 9.4174C42.7029 7.5538 41.319 4.3918 43.0833 2.97213C43.2952 2.80161 43.525 2.66172 43.7679 2.55058C44.6076 2.95813 45.4747 3.53757 46.2993 4.26453C48.7034 6.38403 49.9419 9.04635 49.4546 11.047V11.047ZM17.7028 4.26453C18.5273 3.53757 19.3944 2.95813 20.2341 2.55058C20.4769 2.66172 20.7068 2.80161 20.9187 2.97225C22.6829 4.39192 21.299 7.55405 20.2431 9.41752C20.2344 9.40865 20.2255 9.39989 20.2166 9.39114C19.8773 9.05885 19.2672 8.67068 18.2874 8.70344C17.5055 8.73031 16.8053 9.05485 16.2624 9.64192C15.6424 10.3124 15.2825 11.3015 15.323 12.2231C15.33 12.3807 15.3457 12.5339 15.3677 12.6832C15.0099 12.2522 14.7101 11.7152 14.5474 11.0471C14.0602 9.04635 15.2988 6.38403 17.7028 4.26453V4.26453ZM35.0459 25.3453C35.027 25.4372 34.9549 25.6622 34.6935 25.7668L32 26.8442L29.3066 25.7668C29.0452 25.6622 28.973 25.4373 28.9541 25.3454C28.9353 25.2535 28.9129 25.0184 29.112 24.8192C29.2216 24.7097 29.3671 24.6496 29.5217 24.6496H34.4782C34.6329 24.6496 34.7785 24.7098 34.8879 24.8192C35.0871 25.0183 35.0648 25.2534 35.0459 25.3453V25.3453ZM46.8782 26.2126C46.3947 26.6665 45.7633 26.9164 45.1001 26.9164H42.7862C42.0922 26.9164 41.4399 26.6461 40.9493 26.1555C40.1044 25.3107 38.9811 24.8454 37.7862 24.8454H36.9027C36.8232 24.3407 36.5871 23.8665 36.2139 23.4933C35.7503 23.0296 35.1339 22.7744 34.4781 22.7744H29.5216C28.8659 22.7744 28.2496 23.0296 27.7859 23.4933C27.4127 23.8665 27.1766 24.3407 27.0971 24.8454H26.2157C25.0209 24.8454 23.8977 25.3107 23.0527 26.1555C22.562 26.6462 21.9097 26.9164 21.2156 26.9164H18.9017C18.2386 26.9164 17.6072 26.6665 17.1237 26.2126L15.2225 24.4281C16.4653 22.7331 17.326 20.7915 17.7188 18.7884C17.93 17.712 18.6215 15.8212 18.7093 15.5976C18.8771 15.2108 18.7631 14.7608 18.4396 14.4985C18.4351 14.4948 18.4313 14.4911 18.4263 14.4873C18.4145 14.4781 17.2579 13.5355 17.1965 12.1407C17.1777 11.7143 17.3556 11.2216 17.6393 10.9149C17.8403 10.6974 18.0735 10.587 18.3516 10.5775C18.7296 10.5645 18.8583 10.6867 18.9003 10.7268C19.1003 10.9181 19.1491 11.3021 19.1505 11.411C19.145 11.8186 19.4034 12.1829 19.7898 12.3125C20.1759 12.442 20.602 12.3074 20.8434 11.9791C21.052 11.6954 25.7361 5.23065 22.4948 1.87787C22.9767 1.84037 23.4174 1.8895 23.7957 2.03389C24.5943 2.33868 25.0803 2.77398 25.282 3.36492C25.6363 4.40367 25.0693 5.79321 24.7326 6.41191C24.5678 6.52805 24.3871 6.65807 24.1917 6.80346C23.7763 7.1125 23.6899 7.69982 23.9989 8.11537C24.183 8.36277 24.4656 8.49341 24.752 8.49341C24.9465 8.49341 25.1428 8.43315 25.3108 8.30814C26.1461 7.68694 26.7008 7.3564 26.7055 7.35353C26.7115 7.35002 26.7175 7.3464 26.7234 7.34277C28.368 6.3209 30.1433 5.80284 32 5.80284C33.8567 5.80284 35.6321 6.32103 37.2768 7.34277C37.2889 7.3504 37.3011 7.35753 37.3135 7.36453C37.4187 7.42828 37.9413 7.75145 38.6891 8.30764C39.1045 8.61655 39.6919 8.53042 40.001 8.11487C40.3101 7.69944 40.2237 7.112 39.8083 6.80296C39.615 6.65919 39.4364 6.53055 39.273 6.41541C39.0243 5.95061 38.3354 4.50331 38.7186 3.3698C38.9191 2.77635 39.4058 2.33943 40.2064 2.03389C40.5845 1.88962 41.0252 1.84037 41.5071 1.87787C38.2659 5.23065 42.9501 11.6954 43.1586 11.979C43.4001 12.3072 43.826 12.442 44.2123 12.3124C44.5988 12.1827 44.857 11.8183 44.8515 11.4109C44.8507 11.3435 44.8922 10.932 45.0977 10.7307C45.1397 10.6895 45.2682 10.564 45.6505 10.5774C45.9288 10.5869 46.1618 10.6974 46.3628 10.9148C46.6465 11.2215 46.8243 11.7142 46.8055 12.1406C46.7464 13.489 45.6601 14.4169 45.5833 14.4809C45.2425 14.7403 45.1191 15.2021 45.2908 15.5978C45.3787 15.8215 46.0699 17.711 46.2812 18.7883C46.674 20.7919 47.5351 22.7339 48.7783 24.4291L46.8782 26.2126ZM10.2563 62.1248C10.2434 62.1248 10.2045 62.1248 10.1743 62.082C10.146 62.0422 10.1574 62.01 10.1617 61.9979C10.6122 60.7179 11.8275 59.8579 13.1854 59.8579H15.2938C15.6261 60.354 16.007 60.8219 16.4369 61.2518C16.7542 61.5691 17.0909 61.8596 17.443 62.1248H10.2563ZM53.8259 62.0819C53.7956 62.1247 53.7566 62.1247 53.7439 62.1247H46.5571C46.9093 61.8595 47.246 61.5689 47.5632 61.2517C47.9932 60.8218 48.374 60.3538 48.7064 59.8578H50.8148C52.1727 59.8578 53.3878 60.7178 53.8386 61.9978C53.8427 62.01 53.8541 62.0422 53.8259 62.0819Z" fill="#34CB79"/>
<path d="M21.6446 43.4849C21.1268 43.4849 20.707 43.9047 20.707 44.4225V52.7068C20.707 54.3659 22.0567 55.7155 23.7158 55.7155H25.7868C27.4457 55.7155 28.7955 54.3658 28.7955 52.7068V46.4936C28.7955 45.9758 28.3757 45.556 27.8579 45.556C27.3401 45.556 26.9203 45.9758 26.9203 46.4936V47.627H22.5823V44.4225C22.5823 43.9047 22.1625 43.4849 21.6446 43.4849V43.4849ZM26.9203 49.5023V52.707C26.9203 53.3319 26.4118 53.8404 25.7868 53.8404H23.7158C23.0907 53.8404 22.5823 53.3319 22.5823 52.707V49.5023H26.9203Z" fill="#34CB79"/>
<path d="M36.1422 45.556C35.6243 45.556 35.2046 45.9758 35.2046 46.4936V52.7068C35.2046 54.3659 36.5543 55.7155 38.2132 55.7155H40.2842C41.9431 55.7155 43.2928 54.3658 43.2928 52.7068V44.4225C43.2928 43.9047 42.8731 43.4849 42.3552 43.4849C41.8372 43.4849 41.4176 43.9047 41.4176 44.4225V47.627H37.0797V46.4936C37.0798 45.9758 36.6601 45.556 36.1422 45.556V45.556ZM41.4177 49.5023V52.707C41.4177 53.3319 40.9093 53.8404 40.2843 53.8404H38.2133C37.5884 53.8404 37.0799 53.3319 37.0799 52.707V49.5023H41.4177Z" fill="#34CB79"/>
</g>
<defs>
<clipPath id="clip0">
<rect width="64" height="64" fill="white"/>
</clipPath>
</defs>
</svg>
