<svg width="64" height="64" viewBox="0 0 64 64" fill="none" xmlns="http://www.w3.org/2000/svg">
<g clip-path="url(#clip0)">
<path d="M61.1882 40.187H37.5057C37.1562 39.0311 36.0817 38.187 34.8133 38.187C33.545 38.187 32.4705 39.0311 32.121 40.187H30.0057C29.7091 39.2058 28.8901 38.4493 27.8734 38.2431V33.7836C31.7572 30.6739 37.8668 23.5223 35.0001 18.2663C35.4682 17.7157 35.8413 17.0475 36.122 16.2688C38.1238 19.8467 39.1733 23.861 39.1733 27.9956C39.1733 30.9886 38.6248 33.9176 37.5431 36.7012C37.3556 37.1838 37.5947 37.7271 38.0773 37.9146C38.5488 38.0977 39.1011 37.8687 39.2908 37.3805C40.4571 34.3795 41.0484 31.2219 41.0484 27.9956C41.0484 23.3713 39.8294 18.8864 37.5105 14.9219H39.1759C42.3223 14.9219 44.9357 12.5972 45.3895 9.57533H48.3692C48.8869 9.57533 49.3067 9.15558 49.3067 8.63783C49.3067 3.8996 45.528 0.000489796 40.7892 -0.000510201C38.5685 -0.0010102 34.5248 -0.000510201 32.3898 -0.000510201C25.9185 -0.000510201 20.6536 5.25759 20.6536 11.7207V18.0528C17.26 20.9325 15.3482 24.7844 14.8258 30.0975C14.4765 33.6509 14.9129 36.669 15.1168 37.8015C15.1979 38.2525 15.5907 38.5731 16.0385 38.5731C16.7982 38.5731 17.5862 38.3632 18.3062 38.2183V40.1867H2.81347C1.27585 40.1783 0.000976562 41.4661 0.000976562 42.9992C0.000976562 44.5499 1.2626 45.8117 2.81347 45.8117H22.1521V61.1404C22.1521 61.6829 21.7109 62.1241 21.1659 62.1241C20.6228 62.1241 20.1809 61.6829 20.1809 61.1404V48.6242C20.1809 48.1063 19.7611 47.6867 19.2434 47.6867C18.7257 47.6867 18.3059 48.1063 18.3059 48.6242V61.1404C18.3059 62.7166 19.5889 63.9991 21.1684 63.9991C22.7448 63.9991 24.0271 62.7166 24.0271 61.1404V54.599C24.3348 54.7123 24.667 54.7741 25.0134 54.7741C26.5904 54.7741 27.8734 53.4917 27.8734 51.9154V47.7555C28.8901 47.5493 29.7091 46.7928 30.0057 45.8117H32.121C32.4705 46.9676 33.545 47.8117 34.8133 47.8117C36.0817 47.8117 37.1562 46.9676 37.5057 45.8117H61.1882C61.9405 45.8117 62.647 45.5183 63.175 44.9882C63.7075 44.4577 64.0007 43.7512 64.0007 42.9992C64.0007 41.4486 62.7391 40.187 61.1882 40.187V40.187ZM36.7508 1.87461H40.7889C44.1784 1.87461 46.9832 4.42222 47.3827 7.70046H36.7508V1.87461ZM36.7508 9.57545H43.4833C43.0524 11.5576 41.2852 13.0471 39.1758 13.0471H36.723C36.7633 12.3513 36.7553 10.3089 36.7508 9.57545V9.57545ZM31.9573 1.88548C32.4875 1.90361 34.3695 1.89986 34.8758 1.87448C34.8802 2.42236 34.883 12.1457 34.8647 12.6498C33.2411 11.5239 32.1365 10.1035 31.5744 8.41233C30.7641 5.97497 31.2827 3.59498 31.9573 1.88548V1.88548ZM22.5284 11.7208C22.5284 7.16521 25.6436 3.32373 29.8582 2.20498C29.2669 4.10485 28.9652 6.50746 29.795 9.00395C30.5831 11.3749 32.2059 13.2931 34.6195 14.7159C34.4387 15.5334 34.1633 16.2159 33.7981 16.7507C33.7332 16.6909 33.6676 16.6333 33.6015 16.577C33.5887 16.5658 33.5758 16.5549 33.5627 16.5444C32.3188 15.5011 30.8975 15.0454 30.35 14.8998C27.8847 14.2442 25.2626 14.8291 22.5285 16.6363V11.7208H22.5284ZM21.3516 19.9322C23.8683 17.661 26.2216 16.5177 28.3705 16.5177C28.8812 16.5177 29.3809 16.5824 29.868 16.7119C30.0874 16.7703 30.7526 16.9674 31.476 17.3764C30.9406 17.8268 30.3734 18.2445 29.7797 18.6239C26.9051 20.4605 23.5236 21.3635 20.1116 21.2307C20.4953 20.7683 20.9068 20.3335 21.3516 19.9322V19.9322ZM18.8622 23.0219C23.9285 23.5434 29.1141 21.9419 32.9535 18.5795C33.9275 19.76 34.0367 21.258 33.6121 22.8718C29.9629 27.4289 26.4069 28.6715 16.9487 28.4429C17.3199 26.3916 17.9585 24.58 18.8622 23.0219V23.0219ZM2.81347 43.9369C2.29647 43.9369 1.87597 43.5164 1.87597 42.9994C1.87597 42.4918 2.30397 42.0596 2.81347 42.0619H24.5009V43.9369H2.81347ZM20.1809 40.187V37.7568C20.853 37.5625 21.511 37.3418 22.1521 37.0915V40.1868H20.1809V40.187ZM25.9984 51.9157C25.9984 52.4582 25.5565 52.8994 25.0134 52.8994C24.4695 52.8994 24.0271 52.4582 24.0271 51.9157V45.8119H24.621C24.8396 46.5351 25.3421 47.1358 25.9984 47.4846V51.9157ZM25.9984 38.5143C25.3421 38.863 24.8396 39.4638 24.621 40.187H24.0271V36.2551C24.7046 35.9148 25.362 35.5407 25.9984 35.1322V38.5143ZM16.8238 36.5825C16.6457 35.2667 16.4352 32.9245 16.6892 30.3091C22.0869 30.4582 29.085 29.2569 31.163 27.638C27.5394 32.5859 22.8616 35.642 16.8238 36.5825ZM28.2509 44.9994C28.2509 45.5164 27.8304 45.9369 27.3134 45.9369C26.7964 45.9369 26.3759 45.5164 26.3759 44.9994V40.9995C26.3759 40.4825 26.7964 40.062 27.3134 40.062C27.8304 40.062 28.2509 40.4825 28.2509 40.9995V44.9994ZM32.0009 43.9369H30.1259V42.0619H32.0009V43.9369ZM35.7508 44.9994C35.7508 45.5164 35.3303 45.9369 34.8133 45.9369C34.2963 45.9369 33.8758 45.5164 33.8758 44.9994V40.9995C33.8758 40.4825 34.2963 40.062 34.8133 40.062C35.3303 40.062 35.7508 40.4825 35.7508 40.9995V44.9994ZM61.849 43.6627C61.6729 43.8394 61.4382 43.9368 61.1882 43.9368H37.6258V42.0618H61.1882C61.7052 42.0618 62.1257 42.4823 62.1257 42.9993C62.1257 43.2494 62.0284 43.4841 61.849 43.6627ZM32.9383 5.74959C33.4561 5.74959 33.8758 5.32984 33.8758 4.8121C33.8758 4.29435 33.4561 3.8746 32.9383 3.8746C32.4206 3.8746 32.0009 4.29435 32.0009 4.8121C32.0009 5.32984 32.4206 5.74959 32.9383 5.74959Z" fill="#592211"/>
</g>
<defs>
<clipPath id="clip0">
<rect width="64" height="64" fill="white"/>
</clipPath>
</defs>
</svg>
