<svg width="64" height="64" viewBox="0 0 64 64" fill="none" xmlns="http://www.w3.org/2000/svg">
<path d="M63.3414 35.5438C61.59 32.8813 58.6725 28.9864 54.7191 25.5512C50.0418 21.4866 45.0339 19.0137 39.8353 18.2013C32.0914 16.9916 24.0485 19.4852 15.9031 25.6135V18.4318C15.9031 16.4161 15.0298 14.5024 13.5068 13.1817C11.9841 11.8611 9.96623 11.2671 7.97073 11.5522L4.24612 12.0842C1.8255 12.4301 0 14.5348 0 16.9801V20.5174C0 21.0431 0.216375 21.5531 0.593749 21.9168C0.724499 22.0428 0.870123 22.1464 1.02537 22.2296L1.01812 22.9351C1.00412 24.3015 1.92025 25.4875 3.24612 25.819L5.03224 26.2655C5.06187 26.273 5.08612 26.296 5.08849 26.319C5.26099 28.0134 5.86211 30.8803 7.03249 33.8457C8.56336 37.7256 10.6852 40.9336 13.3391 43.3921L13.1151 45.6324H12.9615C11.3396 45.6324 9.90236 46.6054 9.29998 48.1114L8.05186 51.2319C7.93636 51.5207 7.97161 51.848 8.14598 52.1056C8.32048 52.3632 8.61136 52.5175 8.92236 52.5175H15.5072C17.3806 52.5175 19.0068 51.1844 19.3743 49.3474L19.7592 47.423C22.4993 48.502 27.2258 49.7641 34.3503 49.7641C36.3581 49.7641 38.5599 49.6619 40.9575 49.429L40.1627 51.1955C40.0322 51.4855 40.0577 51.8221 40.2304 52.0891C40.4032 52.3561 40.6995 52.5176 41.0177 52.5176H49.0335C50.6557 52.5176 51.9752 51.1981 51.9752 49.5761V47.4201C53.1788 47.051 54.0499 46.6905 54.5636 46.3479C55.849 45.491 57.0679 44.118 58.1904 42.2641C59.0935 42.0659 60.0079 41.8551 60.9345 41.6303C62.2233 41.3175 63.2394 40.4355 63.7223 39.2103C64.1985 38.001 64.0563 36.6307 63.3414 35.5438ZM42.8497 20.8337C45.6025 21.6963 49.0059 23.2892 52.6151 26.2102L52.2833 26.4425C51.859 26.7394 51.7559 27.324 52.0528 27.7482C52.2352 28.0087 52.526 28.1482 52.8216 28.1482C53.0071 28.1482 53.1948 28.0932 53.3584 27.9787L54.0875 27.4683C56.4375 29.583 58.8473 32.2803 61.1994 35.7184C57.2051 36.7427 53.457 37.5038 49.974 37.999L48.5752 31.3269L50.2833 30.1313C50.7075 29.8344 50.8107 29.2498 50.5138 28.8257C50.2169 28.4015 49.6324 28.2982 49.2082 28.5953L47.5154 29.7802L41.9228 26.0869L42.8497 20.8337ZM48.109 38.2419C44.8109 38.6304 41.7669 38.7669 38.9958 38.6479C35.1702 38.4834 31.8504 37.8318 29.0784 36.7097L32.4828 30.4684L40.7634 27.5683L46.692 31.4834L48.109 38.2419ZM39.5457 20.0539C40.0014 20.1252 40.4988 20.2189 41.0324 20.3408L40.0644 25.8265L32.3376 28.5328L28.9146 20.8487C32.5239 19.7803 36.0747 19.5116 39.5457 20.0539ZM6.95386 26.1289C6.87161 25.3214 6.28211 24.6452 5.48724 24.4464L3.70112 23.9999C3.22037 23.8798 2.88824 23.4498 2.89337 22.9543L2.89887 22.4137C4.82399 22.3014 7.07449 22.0273 8.37098 21.3791C8.83398 21.1476 9.02173 20.5844 8.79023 20.1213C8.55873 19.6582 7.99598 19.4704 7.53236 19.7021C6.60724 20.1647 4.56724 20.4856 1.936 20.5823C1.9295 20.5824 1.91237 20.5833 1.89512 20.5668C1.87512 20.5476 1.87512 20.5249 1.87512 20.5176V16.9802C1.87512 15.4621 3.00837 14.1553 4.51137 13.9406L8.23598 13.4086C9.69311 13.1997 11.1664 13.6341 12.2784 14.5984C13.3903 15.5627 14.028 16.9601 14.028 18.4319V27.532C14.028 27.5397 14.029 27.547 14.0291 27.5545C14.0292 27.56 14.0286 27.5655 14.0288 27.571C14.0371 27.7693 14.219 31.2153 16.768 34.961L16.5161 35.045C15.0442 35.5357 13.9933 36.85 13.8391 38.3938L13.5796 40.9884C7.91136 34.9119 6.99261 26.5087 6.95386 26.1289ZM18.8571 42.3719L17.5356 48.9798C17.343 49.9431 16.49 50.6425 15.5071 50.6425H10.3071L11.041 48.8078C11.3569 48.0179 12.1107 47.5075 12.9615 47.5075H13.9635C14.4452 47.5075 14.8483 47.1425 14.8963 46.6633L15.7047 38.5804C15.7856 37.7707 16.3367 37.0814 17.1087 36.8239L17.9761 36.5348C18.776 37.463 19.7371 38.3846 20.8933 39.2556C22.127 40.1848 23.5038 40.989 25.0118 41.6729C23.5912 42.5908 21.7553 42.8231 20.6686 42.8743L20.6956 42.7395C20.7972 42.2318 20.4678 41.7379 19.9601 41.6364C19.4516 41.5345 18.9586 41.8641 18.8571 42.3719ZM20.1331 45.5528L20.291 44.7633C21.6815 44.7478 24.9038 44.4801 27.0102 42.4804C29.3996 43.332 32.0743 43.9146 35.0202 44.2196C36.6446 44.3879 38.3543 44.4718 40.1467 44.4718C41.73 44.4718 43.3798 44.4045 45.09 44.2736V45.6343C43.786 45.6759 42.5932 46.3635 41.8975 47.4464C30.3382 48.7416 23.4602 46.9279 20.1331 45.5528ZM50.1002 49.576C50.1 50.164 49.6217 50.6424 49.0335 50.6424H42.4677L43.3294 48.7271C43.6629 47.9861 44.4034 47.5074 45.2159 47.5074H46.0277C46.5455 47.5074 46.9652 47.0878 46.9652 46.5699V44.106C47.9895 44.0021 49.0343 43.8768 50.1002 43.7285V49.576V49.576ZM53.5234 44.7878C53.3803 44.8831 52.967 45.117 51.9752 45.451V43.447C53.143 43.2605 54.3336 43.0494 55.5479 42.812C54.8854 43.6658 54.2014 44.3358 53.5234 44.7878ZM61.9776 38.5228C61.7214 39.1726 61.18 39.6411 60.4923 39.8081C50.6189 42.2045 42.1292 43.0628 35.2594 42.3594C29.8088 41.8011 25.3692 40.2634 22.0637 37.7891C17.1888 34.14 16.159 29.4108 15.9518 27.9437C16.6091 27.423 17.2651 26.9298 17.9202 26.4587C18.3392 28.5993 19.4045 31.6203 22.0813 34.3485C22.265 34.5355 22.5076 34.6294 22.7506 34.6294C22.9876 34.6294 23.2247 34.5402 23.4072 34.3612C23.7767 33.9987 23.7825 33.405 23.4198 33.0354C20.697 30.2603 19.8705 27.1469 19.6268 25.2845C22.148 23.6322 24.6498 22.3499 27.1257 21.4408L30.7876 29.6612L27.3717 35.9235C26.9882 35.7232 26.6153 35.5137 26.2576 35.2918C25.8175 35.0188 25.2396 35.1542 24.9667 35.5942C24.6938 36.0342 24.8291 36.6122 25.2691 36.885C29.2333 39.3445 34.4829 40.5743 40.9729 40.5743C46.9693 40.5743 54.028 39.5208 62.1034 37.4203C62.16 37.7849 62.1195 38.1627 61.9776 38.5228Z" fill="#34CB79"/>
<path d="M6.94971 15.5725C6.43183 15.5725 6.01221 15.9923 6.01221 16.51V17.512C6.01221 18.0298 6.43183 18.4495 6.94971 18.4495C7.46758 18.4495 7.8872 18.0298 7.8872 17.512V16.51C7.8872 15.9923 7.46745 15.5725 6.94971 15.5725Z" fill="#34CB79"/>
</svg>
